<mxfile host="app.diagrams.net" modified="2023-12-04T17:04:59.943Z" agent="Mozilla/5.0 (Macintosh; Intel Mac OS X 10_15_7) AppleWebKit/537.36 (KHTML, like Gecko) Chrome/119.0.0.0 Safari/537.36" etag="DK2wv7xFeLWSDOj_iY8l" version="22.1.5" type="github" pages="5">
  <diagram name="ImportObjects" id="B52h8_X5WKBb54wcMegX">
    <mxGraphModel dx="1488" dy="2032" grid="0" gridSize="10" guides="1" tooltips="1" connect="1" arrows="1" fold="1" page="1" pageScale="1" pageWidth="1169" pageHeight="827" math="0" shadow="0">
      <root>
        <mxCell id="LdAP1DnBUgq6UGCHDwLP-0" />
        <mxCell id="LdAP1DnBUgq6UGCHDwLP-1" parent="LdAP1DnBUgq6UGCHDwLP-0" />
        <mxCell id="LdAP1DnBUgq6UGCHDwLP-2" value="ServiceNow (target)" style="swimlane;" parent="LdAP1DnBUgq6UGCHDwLP-1" vertex="1">
          <mxGeometry x="11" y="-805" width="394" height="789" as="geometry" />
        </mxCell>
        <mxCell id="LdAP1DnBUgq6UGCHDwLP-3" value="Source" style="swimlane;" parent="LdAP1DnBUgq6UGCHDwLP-1" vertex="1">
          <mxGeometry x="414" y="-805" width="227" height="790" as="geometry" />
        </mxCell>
        <mxCell id="LdAP1DnBUgq6UGCHDwLP-4" value="sstdb.V_CMDB_ACCOUNTING" style="html=1;outlineConnect=0;whiteSpace=wrap;fillColor=#dae8fc;shape=mxgraph.archimate3.businessObject;overflow=fill;strokeColor=#6c8ebf;" parent="LdAP1DnBUgq6UGCHDwLP-3" vertex="1">
          <mxGeometry x="3.5" y="40" width="220" height="43" as="geometry" />
        </mxCell>
        <mxCell id="LdAP1DnBUgq6UGCHDwLP-5" value="&lt;div&gt;&lt;div&gt;sstdb.V_CMDB_IP_DEVICE vcid&lt;/div&gt;&lt;div&gt;LEFT JOIN sstdb.CMDB_CI cc ON&lt;/div&gt;&lt;div&gt;vcid.CI_ID = cc.CI_ID&lt;span style=&quot;&quot;&gt;&lt;/span&gt;&lt;/div&gt;&lt;/div&gt;" style="html=1;outlineConnect=0;whiteSpace=wrap;fillColor=#dae8fc;shape=mxgraph.archimate3.businessObject;overflow=fill;strokeColor=#6c8ebf;" parent="LdAP1DnBUgq6UGCHDwLP-3" vertex="1">
          <mxGeometry x="3" y="223.5" width="220" height="60" as="geometry" />
        </mxCell>
        <mxCell id="LdAP1DnBUgq6UGCHDwLP-6" value="&lt;div&gt;sstdb.V_CMDB_PHONECONTRACT vcp&lt;/div&gt;&lt;div&gt;LEFT JOIN sstdb.CMDB_CI cc ON&lt;/div&gt;&lt;div&gt;vcp.CI_ID = cc.CI_ID&lt;span style=&quot;&quot;&gt;&lt;/span&gt;&lt;/div&gt;" style="html=1;outlineConnect=0;whiteSpace=wrap;fillColor=#dae8fc;shape=mxgraph.archimate3.businessObject;overflow=fill;strokeColor=#6c8ebf;" parent="LdAP1DnBUgq6UGCHDwLP-3" vertex="1">
          <mxGeometry x="3.5" y="298" width="220" height="56" as="geometry" />
        </mxCell>
        <mxCell id="LdAP1DnBUgq6UGCHDwLP-7" value="SSTDB.V_CMDB_PHONEGROUP vcp LEFT JOIN SSTDB.CMDB_CI cc ON vcp.CI_ID = cc.CI_ID" style="html=1;outlineConnect=0;whiteSpace=wrap;fillColor=#dae8fc;shape=mxgraph.archimate3.businessObject;overflow=fill;strokeColor=#6c8ebf;" parent="LdAP1DnBUgq6UGCHDwLP-3" vertex="1">
          <mxGeometry x="3.5" y="362" width="220" height="59" as="geometry" />
        </mxCell>
        <mxCell id="LdAP1DnBUgq6UGCHDwLP-8" value="&lt;div&gt;sstdb.V_CMDB_IP_ADDRESS vcia&lt;/div&gt;&lt;div&gt;LEFT JOIN sstdb.CMDB_CI cc ON&lt;/div&gt;&lt;div&gt;vcia.CI_ID = cc.CI_ID&lt;span style=&quot;&quot;&gt;&lt;/span&gt;&lt;/div&gt;" style="html=1;outlineConnect=0;whiteSpace=wrap;fillColor=#dae8fc;shape=mxgraph.archimate3.businessObject;overflow=fill;strokeColor=#6c8ebf;" parent="LdAP1DnBUgq6UGCHDwLP-3" vertex="1">
          <mxGeometry x="3.5" y="438" width="220" height="57" as="geometry" />
        </mxCell>
        <mxCell id="LdAP1DnBUgq6UGCHDwLP-9" value="&lt;div&gt;sstdb.V_CMDB_IP_DEVICE_PRINTER vcidp&lt;/div&gt;&lt;div&gt;LEFT JOIN sstdb.CMDB_CI cc ON&lt;/div&gt;&lt;div&gt;vcidp.CI_ID = cc.CI_ID&lt;span style=&quot;&quot;&gt;&lt;/span&gt;&lt;/div&gt;" style="html=1;outlineConnect=0;whiteSpace=wrap;fillColor=#dae8fc;shape=mxgraph.archimate3.businessObject;overflow=fill;strokeColor=#6c8ebf;" parent="LdAP1DnBUgq6UGCHDwLP-3" vertex="1">
          <mxGeometry x="3" y="505" width="220" height="73" as="geometry" />
        </mxCell>
        <mxCell id="LdAP1DnBUgq6UGCHDwLP-10" value="SSTDB.V_CMDB_PHONE_GRPMBR vcp" style="html=1;outlineConnect=0;whiteSpace=wrap;fillColor=#dae8fc;shape=mxgraph.archimate3.businessObject;overflow=fill;strokeColor=#6c8ebf;" parent="LdAP1DnBUgq6UGCHDwLP-3" vertex="1">
          <mxGeometry x="3.5" y="586" width="220" height="43" as="geometry" />
        </mxCell>
        <mxCell id="LdAP1DnBUgq6UGCHDwLP-11" value="sstdb.V_CMDB_MOBILE_DEVICES vcmd LEFT JOIN sstdb.cmdb_ci cc ON vcmd.CI_ID = cc.CI_ID" style="html=1;outlineConnect=0;whiteSpace=wrap;fillColor=#dae8fc;shape=mxgraph.archimate3.businessObject;overflow=fill;strokeColor=#6c8ebf;" parent="LdAP1DnBUgq6UGCHDwLP-3" vertex="1">
          <mxGeometry x="3" y="641" width="220" height="61" as="geometry" />
        </mxCell>
        <mxCell id="LdAP1DnBUgq6UGCHDwLP-12" value="DBO_SST.SPO_ACAT_CISERVICE sw" style="html=1;outlineConnect=0;whiteSpace=wrap;fillColor=#dae8fc;shape=mxgraph.archimate3.businessObject;overflow=fill;strokeColor=#6c8ebf;" parent="LdAP1DnBUgq6UGCHDwLP-3" vertex="1">
          <mxGeometry x="3.5" y="727" width="220" height="43" as="geometry" />
        </mxCell>
        <mxCell id="LdAP1DnBUgq6UGCHDwLP-19" value="sstdb.CMDB_CI cc LEFT JOIN sstdb.V_CMDB_BASIC_WORKPLACES vcbw ON cc.CI_ID = VCBW.CI_ID&amp;nbsp;" style="html=1;outlineConnect=0;whiteSpace=wrap;fillColor=#dae8fc;shape=mxgraph.archimate3.businessObject;overflow=fill;strokeColor=#6c8ebf;" parent="LdAP1DnBUgq6UGCHDwLP-3" vertex="1">
          <mxGeometry x="3.5" y="124" width="220" height="66" as="geometry" />
        </mxCell>
        <mxCell id="LdAP1DnBUgq6UGCHDwLP-14" value="Scheduled Data Import&lt;br&gt;&amp;lt;scheduled_import_set&amp;gt;" style="html=1;outlineConnect=0;whiteSpace=wrap;fillColor=#d5e8d4;shape=mxgraph.archimate3.application;appType=comp;archiType=square;strokeColor=#82b366;verticalAlign=top;" parent="LdAP1DnBUgq6UGCHDwLP-1" vertex="1">
          <mxGeometry x="20" y="-768" width="373" height="736" as="geometry" />
        </mxCell>
        <mxCell id="LdAP1DnBUgq6UGCHDwLP-15" value="&amp;lt;DBS DS SSTDB V_CMDB_ACCONTING Full Load&amp;gt;" style="html=1;outlineConnect=0;whiteSpace=wrap;fillColor=#d5e8d4;shape=mxgraph.archimate3.application;appType=proc;archiType=rounded;strokeColor=#82b366;" parent="LdAP1DnBUgq6UGCHDwLP-1" vertex="1">
          <mxGeometry x="27" y="-720" width="360" height="45" as="geometry" />
        </mxCell>
        <mxCell id="LdAP1DnBUgq6UGCHDwLP-17" value="&amp;lt;DBS DS SSTDB CMDB_CI Full Load&amp;gt;" style="html=1;outlineConnect=0;whiteSpace=wrap;fillColor=#d5e8d4;shape=mxgraph.archimate3.application;appType=proc;archiType=rounded;strokeColor=#82b366;" parent="LdAP1DnBUgq6UGCHDwLP-1" vertex="1">
          <mxGeometry x="27" y="-653" width="360" height="45" as="geometry" />
        </mxCell>
        <mxCell id="LdAP1DnBUgq6UGCHDwLP-21" value="u_imp_cmdb_ds_sstdb_ip_device" style="html=1;outlineConnect=0;whiteSpace=wrap;fillColor=#fff2cc;shape=mxgraph.archimate3.businessObject;overflow=fill;strokeColor=#d6b656;" parent="LdAP1DnBUgq6UGCHDwLP-1" vertex="1">
          <mxGeometry x="665" y="-572" width="220" height="44" as="geometry" />
        </mxCell>
        <mxCell id="LdAP1DnBUgq6UGCHDwLP-22" value="&amp;lt;DBS DS SSTDB V_CMDB_IP_DEVICE Full Load&amp;gt;" style="html=1;outlineConnect=0;whiteSpace=wrap;fillColor=#d5e8d4;shape=mxgraph.archimate3.application;appType=proc;archiType=rounded;strokeColor=#82b366;" parent="LdAP1DnBUgq6UGCHDwLP-1" vertex="1">
          <mxGeometry x="27" y="-574" width="360" height="45" as="geometry" />
        </mxCell>
        <mxCell id="LdAP1DnBUgq6UGCHDwLP-23" value="u_cmdb_ds_sstdb_ip_device" style="html=1;outlineConnect=0;whiteSpace=wrap;fillColor=#d5e8d4;shape=mxgraph.archimate3.businessObject;overflow=fill;strokeColor=#82b366;" parent="LdAP1DnBUgq6UGCHDwLP-1" vertex="1">
          <mxGeometry x="908" y="-572" width="241.5" height="43" as="geometry" />
        </mxCell>
        <mxCell id="LdAP1DnBUgq6UGCHDwLP-24" value="&amp;lt;DBS DS SSTDB V_CMDB_PHONECONTRACT Full Load&amp;gt;" style="html=1;outlineConnect=0;whiteSpace=wrap;fillColor=#d5e8d4;shape=mxgraph.archimate3.application;appType=proc;archiType=rounded;strokeColor=#82b366;" parent="LdAP1DnBUgq6UGCHDwLP-1" vertex="1">
          <mxGeometry x="27" y="-502" width="360" height="45" as="geometry" />
        </mxCell>
        <mxCell id="LdAP1DnBUgq6UGCHDwLP-25" value="u_imp_cmdb_ds_sstdb_phonecontract" style="html=1;outlineConnect=0;whiteSpace=wrap;fillColor=#fff2cc;shape=mxgraph.archimate3.businessObject;overflow=fill;strokeColor=#d6b656;" parent="LdAP1DnBUgq6UGCHDwLP-1" vertex="1">
          <mxGeometry x="665" y="-497" width="220" height="44" as="geometry" />
        </mxCell>
        <mxCell id="LdAP1DnBUgq6UGCHDwLP-26" value="u_cmdb_ds_sstdb_phonecontract" style="html=1;outlineConnect=0;whiteSpace=wrap;fillColor=#d5e8d4;shape=mxgraph.archimate3.businessObject;overflow=fill;strokeColor=#82b366;" parent="LdAP1DnBUgq6UGCHDwLP-1" vertex="1">
          <mxGeometry x="908" y="-497" width="241.5" height="41" as="geometry" />
        </mxCell>
        <mxCell id="LdAP1DnBUgq6UGCHDwLP-27" value="u_imp_cmdb_ds_sstdb_phonegroup" style="html=1;outlineConnect=0;whiteSpace=wrap;fillColor=#fff2cc;shape=mxgraph.archimate3.businessObject;overflow=fill;strokeColor=#d6b656;" parent="LdAP1DnBUgq6UGCHDwLP-1" vertex="1">
          <mxGeometry x="665" y="-431" width="220" height="44" as="geometry" />
        </mxCell>
        <mxCell id="LdAP1DnBUgq6UGCHDwLP-28" value="&amp;lt;DBS DS SSTDB V_CMDB_PHONEGROUP Full Load&amp;gt;" style="html=1;outlineConnect=0;whiteSpace=wrap;fillColor=#d5e8d4;shape=mxgraph.archimate3.application;appType=proc;archiType=rounded;strokeColor=#82b366;" parent="LdAP1DnBUgq6UGCHDwLP-1" vertex="1">
          <mxGeometry x="27" y="-435" width="360" height="45" as="geometry" />
        </mxCell>
        <mxCell id="LdAP1DnBUgq6UGCHDwLP-29" value="u_cmdb_ds_sstdb_phonegroup" style="html=1;outlineConnect=0;whiteSpace=wrap;fillColor=#d5e8d4;shape=mxgraph.archimate3.businessObject;overflow=fill;strokeColor=#82b366;" parent="LdAP1DnBUgq6UGCHDwLP-1" vertex="1">
          <mxGeometry x="908" y="-431" width="241.5" height="43" as="geometry" />
        </mxCell>
        <mxCell id="LdAP1DnBUgq6UGCHDwLP-30" value="&amp;lt;DBS DS SSTDB V_CMDB_IP_ADDRESS Full Load&amp;gt;" style="html=1;outlineConnect=0;whiteSpace=wrap;fillColor=#d5e8d4;shape=mxgraph.archimate3.application;appType=proc;archiType=rounded;strokeColor=#82b366;" parent="LdAP1DnBUgq6UGCHDwLP-1" vertex="1">
          <mxGeometry x="27" y="-363" width="360" height="45" as="geometry" />
        </mxCell>
        <mxCell id="LdAP1DnBUgq6UGCHDwLP-31" value="u_imp_cmdb_ds_sstdb_ip_address" style="html=1;outlineConnect=0;whiteSpace=wrap;fillColor=#fff2cc;shape=mxgraph.archimate3.businessObject;overflow=fill;strokeColor=#d6b656;" parent="LdAP1DnBUgq6UGCHDwLP-1" vertex="1">
          <mxGeometry x="665" y="-358" width="220" height="44" as="geometry" />
        </mxCell>
        <mxCell id="LdAP1DnBUgq6UGCHDwLP-32" value="u_cmdb_ds_sstdb_ip_address" style="html=1;outlineConnect=0;whiteSpace=wrap;fillColor=#d5e8d4;shape=mxgraph.archimate3.businessObject;overflow=fill;strokeColor=#82b366;" parent="LdAP1DnBUgq6UGCHDwLP-1" vertex="1">
          <mxGeometry x="908" y="-358" width="241.5" height="45" as="geometry" />
        </mxCell>
        <mxCell id="LdAP1DnBUgq6UGCHDwLP-33" value="u_imp_cmdb_ds_sstdb_ip_device_printer" style="html=1;outlineConnect=0;whiteSpace=wrap;fillColor=#fff2cc;shape=mxgraph.archimate3.businessObject;overflow=fill;strokeColor=#d6b656;" parent="LdAP1DnBUgq6UGCHDwLP-1" vertex="1">
          <mxGeometry x="663" y="-287" width="224" height="44" as="geometry" />
        </mxCell>
        <mxCell id="LdAP1DnBUgq6UGCHDwLP-34" value="&amp;lt;DBS DS SSTDB V_CMDB_IP_DEVICE_PRINTER Full Load&amp;gt;" style="html=1;outlineConnect=0;whiteSpace=wrap;fillColor=#d5e8d4;shape=mxgraph.archimate3.application;appType=proc;archiType=rounded;strokeColor=#82b366;" parent="LdAP1DnBUgq6UGCHDwLP-1" vertex="1">
          <mxGeometry x="27" y="-293" width="360" height="45" as="geometry" />
        </mxCell>
        <mxCell id="LdAP1DnBUgq6UGCHDwLP-35" value="u_cmdb_ds_sstdb_ip_device_printer" style="html=1;outlineConnect=0;whiteSpace=wrap;fillColor=#d5e8d4;shape=mxgraph.archimate3.businessObject;overflow=fill;strokeColor=#82b366;" parent="LdAP1DnBUgq6UGCHDwLP-1" vertex="1">
          <mxGeometry x="908" y="-287" width="241.5" height="43" as="geometry" />
        </mxCell>
        <mxCell id="LdAP1DnBUgq6UGCHDwLP-36" value="&amp;lt;DBS DS SSTDB V_CMDB_PHONE_GRPMBR Full Load&amp;gt;" style="html=1;outlineConnect=0;whiteSpace=wrap;fillColor=#d5e8d4;shape=mxgraph.archimate3.application;appType=proc;archiType=rounded;strokeColor=#82b366;" parent="LdAP1DnBUgq6UGCHDwLP-1" vertex="1">
          <mxGeometry x="27" y="-221" width="360" height="45" as="geometry" />
        </mxCell>
        <mxCell id="LdAP1DnBUgq6UGCHDwLP-37" value="u_imp_cmdb_ds_sstdb_phone_grpmbr" style="html=1;outlineConnect=0;whiteSpace=wrap;fillColor=#fff2cc;shape=mxgraph.archimate3.businessObject;overflow=fill;strokeColor=#d6b656;" parent="LdAP1DnBUgq6UGCHDwLP-1" vertex="1">
          <mxGeometry x="665" y="-216" width="220" height="44" as="geometry" />
        </mxCell>
        <mxCell id="LdAP1DnBUgq6UGCHDwLP-38" value="u_cmdb_ds_sstdb_phonegroup_member" style="html=1;outlineConnect=0;whiteSpace=wrap;fillColor=#d5e8d4;shape=mxgraph.archimate3.businessObject;overflow=fill;strokeColor=#82b366;" parent="LdAP1DnBUgq6UGCHDwLP-1" vertex="1">
          <mxGeometry x="908" y="-216" width="241.5" height="43" as="geometry" />
        </mxCell>
        <mxCell id="LdAP1DnBUgq6UGCHDwLP-39" value="u_imp_cmdb_ds_sstdb_mobile_device" style="html=1;outlineConnect=0;whiteSpace=wrap;fillColor=#fff2cc;shape=mxgraph.archimate3.businessObject;overflow=fill;strokeColor=#d6b656;" parent="LdAP1DnBUgq6UGCHDwLP-1" vertex="1">
          <mxGeometry x="665" y="-150" width="220" height="44" as="geometry" />
        </mxCell>
        <mxCell id="LdAP1DnBUgq6UGCHDwLP-40" value="&amp;lt;DBS DS SSTDB Import Mobile Devices Full Load&amp;gt;" style="html=1;outlineConnect=0;whiteSpace=wrap;fillColor=#d5e8d4;shape=mxgraph.archimate3.application;appType=proc;archiType=rounded;strokeColor=#82b366;" parent="LdAP1DnBUgq6UGCHDwLP-1" vertex="1">
          <mxGeometry x="27" y="-156" width="360" height="45" as="geometry" />
        </mxCell>
        <mxCell id="LdAP1DnBUgq6UGCHDwLP-41" value="u_cmdb_ds_sstdb_mobile_device" style="html=1;outlineConnect=0;whiteSpace=wrap;fillColor=#d5e8d4;shape=mxgraph.archimate3.businessObject;overflow=fill;strokeColor=#82b366;" parent="LdAP1DnBUgq6UGCHDwLP-1" vertex="1">
          <mxGeometry x="908" y="-150" width="241.5" height="44" as="geometry" />
        </mxCell>
        <mxCell id="LdAP1DnBUgq6UGCHDwLP-42" value="&amp;lt;DBS DS ACAT Software Full Load&amp;gt;" style="html=1;outlineConnect=0;whiteSpace=wrap;fillColor=#d5e8d4;shape=mxgraph.archimate3.application;appType=proc;archiType=rounded;strokeColor=#82b366;" parent="LdAP1DnBUgq6UGCHDwLP-1" vertex="1">
          <mxGeometry x="27" y="-84" width="360" height="45" as="geometry" />
        </mxCell>
        <mxCell id="LdAP1DnBUgq6UGCHDwLP-43" value="u_imp_dbs_ds_acat_software" style="html=1;outlineConnect=0;whiteSpace=wrap;fillColor=#fff2cc;shape=mxgraph.archimate3.businessObject;overflow=fill;strokeColor=#d6b656;" parent="LdAP1DnBUgq6UGCHDwLP-1" vertex="1">
          <mxGeometry x="665" y="-78" width="220" height="44" as="geometry" />
        </mxCell>
        <mxCell id="LdAP1DnBUgq6UGCHDwLP-44" value="u_cmdb_ds_acat_software" style="html=1;outlineConnect=0;whiteSpace=wrap;fillColor=#d5e8d4;shape=mxgraph.archimate3.businessObject;overflow=fill;strokeColor=#82b366;" parent="LdAP1DnBUgq6UGCHDwLP-1" vertex="1">
          <mxGeometry x="908" y="-78" width="241.5" height="43" as="geometry" />
        </mxCell>
        <mxCell id="LdAP1DnBUgq6UGCHDwLP-45" value="ServiceNow (target)" style="swimlane;" parent="LdAP1DnBUgq6UGCHDwLP-1" vertex="1">
          <mxGeometry x="645" y="-805" width="516" height="789" as="geometry" />
        </mxCell>
        <mxCell id="LdAP1DnBUgq6UGCHDwLP-13" value="u_imp_cmdb_ds_sstdb_accounting" style="html=1;outlineConnect=0;whiteSpace=wrap;fillColor=#fff2cc;shape=mxgraph.archimate3.businessObject;overflow=fill;strokeColor=#d6b656;" parent="LdAP1DnBUgq6UGCHDwLP-45" vertex="1">
          <mxGeometry x="18" y="40" width="220" height="44" as="geometry" />
        </mxCell>
        <mxCell id="LdAP1DnBUgq6UGCHDwLP-16" value="u_cmdb_ds_sstdb_accounting" style="html=1;outlineConnect=0;whiteSpace=wrap;fillColor=#d5e8d4;shape=mxgraph.archimate3.businessObject;overflow=fill;strokeColor=#82b366;" parent="LdAP1DnBUgq6UGCHDwLP-45" vertex="1">
          <mxGeometry x="263" y="40" width="241.5" height="42" as="geometry" />
        </mxCell>
        <mxCell id="LdAP1DnBUgq6UGCHDwLP-18" value="u_imp_cmdb_ds_sstdb_cmdb_ci" style="html=1;outlineConnect=0;whiteSpace=wrap;fillColor=#fff2cc;shape=mxgraph.archimate3.businessObject;overflow=fill;strokeColor=#d6b656;" parent="LdAP1DnBUgq6UGCHDwLP-45" vertex="1">
          <mxGeometry x="18" y="126" width="220" height="44" as="geometry" />
        </mxCell>
        <mxCell id="LdAP1DnBUgq6UGCHDwLP-20" value="u_cmdb_ds_sstdb_ci" style="html=1;outlineConnect=0;whiteSpace=wrap;fillColor=#d5e8d4;shape=mxgraph.archimate3.businessObject;overflow=fill;strokeColor=#82b366;" parent="LdAP1DnBUgq6UGCHDwLP-45" vertex="1">
          <mxGeometry x="263" y="126" width="241.5" height="42" as="geometry" />
        </mxCell>
        <mxCell id="LdAP1DnBUgq6UGCHDwLP-46" value="" style="html=1;endArrow=block;dashed=1;elbow=vertical;endFill=1;dashPattern=6 4;rounded=0;fontSize=12;" parent="LdAP1DnBUgq6UGCHDwLP-1" source="LdAP1DnBUgq6UGCHDwLP-15" target="LdAP1DnBUgq6UGCHDwLP-17" edge="1">
          <mxGeometry width="160" relative="1" as="geometry">
            <mxPoint x="387" y="137" as="sourcePoint" />
            <mxPoint x="558" y="137" as="targetPoint" />
          </mxGeometry>
        </mxCell>
        <mxCell id="LdAP1DnBUgq6UGCHDwLP-47" value="" style="html=1;endArrow=block;dashed=1;elbow=vertical;endFill=1;dashPattern=6 4;rounded=0;fontSize=12;" parent="LdAP1DnBUgq6UGCHDwLP-1" source="LdAP1DnBUgq6UGCHDwLP-17" target="LdAP1DnBUgq6UGCHDwLP-22" edge="1">
          <mxGeometry width="160" relative="1" as="geometry">
            <mxPoint x="217" y="-665" as="sourcePoint" />
            <mxPoint x="217" y="-643" as="targetPoint" />
          </mxGeometry>
        </mxCell>
        <mxCell id="LdAP1DnBUgq6UGCHDwLP-48" value="" style="html=1;endArrow=block;dashed=1;elbow=vertical;endFill=1;dashPattern=6 4;rounded=0;fontSize=12;" parent="LdAP1DnBUgq6UGCHDwLP-1" source="LdAP1DnBUgq6UGCHDwLP-22" target="LdAP1DnBUgq6UGCHDwLP-24" edge="1">
          <mxGeometry width="160" relative="1" as="geometry">
            <mxPoint x="227" y="-655" as="sourcePoint" />
            <mxPoint x="227" y="-633" as="targetPoint" />
          </mxGeometry>
        </mxCell>
        <mxCell id="LdAP1DnBUgq6UGCHDwLP-49" value="" style="html=1;endArrow=block;dashed=1;elbow=vertical;endFill=1;dashPattern=6 4;rounded=0;fontSize=12;" parent="LdAP1DnBUgq6UGCHDwLP-1" source="LdAP1DnBUgq6UGCHDwLP-24" target="LdAP1DnBUgq6UGCHDwLP-28" edge="1">
          <mxGeometry width="160" relative="1" as="geometry">
            <mxPoint x="237" y="-645" as="sourcePoint" />
            <mxPoint x="237" y="-623" as="targetPoint" />
          </mxGeometry>
        </mxCell>
        <mxCell id="LdAP1DnBUgq6UGCHDwLP-50" value="" style="html=1;endArrow=block;dashed=1;elbow=vertical;endFill=1;dashPattern=6 4;rounded=0;fontSize=12;" parent="LdAP1DnBUgq6UGCHDwLP-1" source="LdAP1DnBUgq6UGCHDwLP-28" target="LdAP1DnBUgq6UGCHDwLP-30" edge="1">
          <mxGeometry width="160" relative="1" as="geometry">
            <mxPoint x="247" y="-635" as="sourcePoint" />
            <mxPoint x="247" y="-613" as="targetPoint" />
          </mxGeometry>
        </mxCell>
        <mxCell id="LdAP1DnBUgq6UGCHDwLP-51" value="" style="html=1;endArrow=block;dashed=1;elbow=vertical;endFill=1;dashPattern=6 4;rounded=0;fontSize=12;" parent="LdAP1DnBUgq6UGCHDwLP-1" source="LdAP1DnBUgq6UGCHDwLP-30" target="LdAP1DnBUgq6UGCHDwLP-34" edge="1">
          <mxGeometry width="160" relative="1" as="geometry">
            <mxPoint x="257" y="-625" as="sourcePoint" />
            <mxPoint x="257" y="-603" as="targetPoint" />
          </mxGeometry>
        </mxCell>
        <mxCell id="LdAP1DnBUgq6UGCHDwLP-52" value="" style="html=1;endArrow=block;dashed=1;elbow=vertical;endFill=1;dashPattern=6 4;rounded=0;fontSize=12;" parent="LdAP1DnBUgq6UGCHDwLP-1" source="LdAP1DnBUgq6UGCHDwLP-34" target="LdAP1DnBUgq6UGCHDwLP-36" edge="1">
          <mxGeometry width="160" relative="1" as="geometry">
            <mxPoint x="267" y="-615" as="sourcePoint" />
            <mxPoint x="267" y="-593" as="targetPoint" />
          </mxGeometry>
        </mxCell>
        <mxCell id="LdAP1DnBUgq6UGCHDwLP-53" value="" style="html=1;endArrow=block;dashed=1;elbow=vertical;endFill=1;dashPattern=6 4;rounded=0;fontSize=12;" parent="LdAP1DnBUgq6UGCHDwLP-1" source="LdAP1DnBUgq6UGCHDwLP-36" target="LdAP1DnBUgq6UGCHDwLP-40" edge="1">
          <mxGeometry width="160" relative="1" as="geometry">
            <mxPoint x="277" y="-605" as="sourcePoint" />
            <mxPoint x="277" y="-583" as="targetPoint" />
          </mxGeometry>
        </mxCell>
        <mxCell id="LdAP1DnBUgq6UGCHDwLP-54" value="" style="html=1;endArrow=block;dashed=1;elbow=vertical;endFill=1;dashPattern=6 4;rounded=0;fontSize=12;" parent="LdAP1DnBUgq6UGCHDwLP-1" source="LdAP1DnBUgq6UGCHDwLP-40" target="LdAP1DnBUgq6UGCHDwLP-42" edge="1">
          <mxGeometry width="160" relative="1" as="geometry">
            <mxPoint x="287" y="-595" as="sourcePoint" />
            <mxPoint x="287" y="-573" as="targetPoint" />
          </mxGeometry>
        </mxCell>
      </root>
    </mxGraphModel>
  </diagram>
  <diagram id="YXlHswINmw_Y0BDl_NoB" name="MobileDev">
    <mxGraphModel dx="1488" dy="1205" grid="1" gridSize="10" guides="1" tooltips="1" connect="1" arrows="1" fold="1" page="1" pageScale="1" pageWidth="1169" pageHeight="827" math="0" shadow="0">
      <root>
        <mxCell id="0" />
        <mxCell id="1" parent="0" />
        <mxCell id="qsUjlqS4tKCTX1iF7pZd-1" value="u_cmdb_ds_sstdb_mobile_device" style="html=1;outlineConnect=0;whiteSpace=wrap;fillColor=#d5e8d4;shape=mxgraph.archimate3.businessObject;overflow=fill;strokeColor=#82b366;" parent="1" vertex="1">
          <mxGeometry x="142" y="230" width="885" height="570" as="geometry" />
        </mxCell>
        <mxCell id="qsUjlqS4tKCTX1iF7pZd-2" value="u_cmdb_ds_sstdb_accounting" style="html=1;outlineConnect=0;whiteSpace=wrap;fillColor=#dae8fc;shape=mxgraph.archimate3.businessObject;overflow=fill;strokeColor=#6c8ebf;" parent="1" vertex="1">
          <mxGeometry x="142" y="100" width="211" height="61" as="geometry" />
        </mxCell>
        <mxCell id="qsUjlqS4tKCTX1iF7pZd-3" value="" style="fontSize=12;html=1;endArrow=ERzeroToMany;endFill=1;rounded=0;entryX=0.25;entryY=0;entryDx=0;entryDy=0;entryPerimeter=0;" parent="1" source="qsUjlqS4tKCTX1iF7pZd-2" target="qsUjlqS4tKCTX1iF7pZd-1" edge="1">
          <mxGeometry width="100" height="100" relative="1" as="geometry">
            <mxPoint x="194" y="143" as="sourcePoint" />
            <mxPoint x="542.5" y="8.5" as="targetPoint" />
          </mxGeometry>
        </mxCell>
        <mxCell id="KeaiziXyBubPuHNLIgcf-1" value="Account Asset" style="edgeLabel;html=1;align=center;verticalAlign=middle;resizable=0;points=[];" parent="qsUjlqS4tKCTX1iF7pZd-3" vertex="1" connectable="0">
          <mxGeometry x="-0.0458" y="-1" relative="1" as="geometry">
            <mxPoint as="offset" />
          </mxGeometry>
        </mxCell>
        <mxCell id="qsUjlqS4tKCTX1iF7pZd-4" value="u_cmdb_ds_sstdb_ci" style="html=1;outlineConnect=0;whiteSpace=wrap;fillColor=#dae8fc;shape=mxgraph.archimate3.businessObject;overflow=fill;strokeColor=#6c8ebf;" parent="1" vertex="1">
          <mxGeometry x="479" y="100" width="211" height="61" as="geometry" />
        </mxCell>
        <mxCell id="qsUjlqS4tKCTX1iF7pZd-5" value="Parent Id" style="fontSize=12;html=1;endArrow=ERzeroToMany;endFill=1;rounded=0;" parent="1" source="qsUjlqS4tKCTX1iF7pZd-4" target="qsUjlqS4tKCTX1iF7pZd-1" edge="1">
          <mxGeometry width="100" height="100" relative="1" as="geometry">
            <mxPoint x="122" y="-60" as="sourcePoint" />
            <mxPoint x="122" y="60" as="targetPoint" />
          </mxGeometry>
        </mxCell>
        <mxCell id="KeaiziXyBubPuHNLIgcf-2" value="u_pm_product_class" style="html=1;outlineConnect=0;whiteSpace=wrap;fillColor=#dae8fc;shape=mxgraph.archimate3.businessObject;overflow=fill;strokeColor=#6c8ebf;" parent="1" vertex="1">
          <mxGeometry x="713" y="70" width="131" height="61" as="geometry" />
        </mxCell>
        <mxCell id="KeaiziXyBubPuHNLIgcf-3" value="u_dbs_ds_pm_product" style="html=1;outlineConnect=0;whiteSpace=wrap;fillColor=#dae8fc;shape=mxgraph.archimate3.businessObject;overflow=fill;strokeColor=#6c8ebf;" parent="1" vertex="1">
          <mxGeometry x="893" y="70" width="141" height="61" as="geometry" />
        </mxCell>
        <mxCell id="KeaiziXyBubPuHNLIgcf-4" value="Product Id" style="fontSize=12;html=1;endArrow=ERzeroToMany;endFill=1;rounded=0;entryX=0.75;entryY=0;entryDx=0;entryDy=0;entryPerimeter=0;" parent="1" source="KeaiziXyBubPuHNLIgcf-3" target="qsUjlqS4tKCTX1iF7pZd-1" edge="1">
          <mxGeometry width="100" height="100" relative="1" as="geometry">
            <mxPoint x="366" y="111" as="sourcePoint" />
            <mxPoint x="274" y="240" as="targetPoint" />
          </mxGeometry>
        </mxCell>
        <mxCell id="KeaiziXyBubPuHNLIgcf-5" value="Class&lt;br&gt;Type" style="fontSize=12;html=1;endArrow=ERzeroToMany;endFill=1;rounded=0;entryX=0.75;entryY=0;entryDx=0;entryDy=0;entryPerimeter=0;" parent="1" source="KeaiziXyBubPuHNLIgcf-2" target="qsUjlqS4tKCTX1iF7pZd-1" edge="1">
          <mxGeometry width="100" height="100" relative="1" as="geometry">
            <mxPoint x="958" y="31" as="sourcePoint" />
            <mxPoint x="822" y="240" as="targetPoint" />
          </mxGeometry>
        </mxCell>
        <mxCell id="wf6aQFHoAOqdEToQpN07-1" value="u_cmdb_ds_sstdb_ip_device" style="html=1;outlineConnect=0;whiteSpace=wrap;fillColor=#d5e8d4;shape=mxgraph.archimate3.businessObject;overflow=fill;strokeColor=#82b366;" parent="1" vertex="1">
          <mxGeometry x="471.5" y="343.5" width="241.5" height="43" as="geometry" />
        </mxCell>
        <mxCell id="wf6aQFHoAOqdEToQpN07-2" value="u_cmdb_ds_sstdb_phonecontract" style="html=1;outlineConnect=0;whiteSpace=wrap;fillColor=#d5e8d4;shape=mxgraph.archimate3.businessObject;overflow=fill;strokeColor=#82b366;" parent="1" vertex="1">
          <mxGeometry x="511.5" y="403.5" width="241.5" height="41" as="geometry" />
        </mxCell>
        <mxCell id="wf6aQFHoAOqdEToQpN07-3" value="u_cmdb_ds_sstdb_phonegroup" style="html=1;outlineConnect=0;whiteSpace=wrap;fillColor=#d5e8d4;shape=mxgraph.archimate3.businessObject;overflow=fill;strokeColor=#82b366;" parent="1" vertex="1">
          <mxGeometry x="556.5" y="463.5" width="241.5" height="43" as="geometry" />
        </mxCell>
        <mxCell id="wf6aQFHoAOqdEToQpN07-4" value="u_cmdb_ds_sstdb_ip_address" style="html=1;outlineConnect=0;whiteSpace=wrap;fillColor=#d5e8d4;shape=mxgraph.archimate3.businessObject;overflow=fill;strokeColor=#82b366;" parent="1" vertex="1">
          <mxGeometry x="601.5" y="533.5" width="241.5" height="45" as="geometry" />
        </mxCell>
        <mxCell id="wf6aQFHoAOqdEToQpN07-5" value="u_cmdb_ds_sstdb_ip_device_printer" style="html=1;outlineConnect=0;whiteSpace=wrap;fillColor=#d5e8d4;shape=mxgraph.archimate3.businessObject;overflow=fill;strokeColor=#82b366;" parent="1" vertex="1">
          <mxGeometry x="651.5" y="603.5" width="241.5" height="43" as="geometry" />
        </mxCell>
        <mxCell id="wf6aQFHoAOqdEToQpN07-6" value="u_cmdb_ds_sstdb_phonegroup_member" style="html=1;outlineConnect=0;whiteSpace=wrap;fillColor=#d5e8d4;shape=mxgraph.archimate3.businessObject;overflow=fill;strokeColor=#82b366;" parent="1" vertex="1">
          <mxGeometry x="691.5" y="673.5" width="241.5" height="43" as="geometry" />
        </mxCell>
        <mxCell id="wf6aQFHoAOqdEToQpN07-8" value="u_cmdb_ds_acat_software" style="html=1;outlineConnect=0;whiteSpace=wrap;fillColor=#d5e8d4;shape=mxgraph.archimate3.businessObject;overflow=fill;strokeColor=#82b366;" parent="1" vertex="1">
          <mxGeometry x="741.5" y="733.5" width="241.5" height="43" as="geometry" />
        </mxCell>
        <mxCell id="wf6aQFHoAOqdEToQpN07-10" value="&lt;b&gt;u_cmdb_ds_sstdb_ci&lt;/b&gt;" style="html=1;outlineConnect=0;whiteSpace=wrap;fillColor=#d5e8d4;shape=mxgraph.archimate3.businessObject;overflow=fill;strokeColor=#82b366;" parent="1" vertex="1">
          <mxGeometry x="435.5" y="283.5" width="241.5" height="42" as="geometry" />
        </mxCell>
      </root>
    </mxGraphModel>
  </diagram>
  <diagram name="Accounting" id="Env2-uJQXdDHQVAN8NbP">
    <mxGraphModel dx="1488" dy="1205" grid="1" gridSize="10" guides="1" tooltips="1" connect="1" arrows="1" fold="1" page="1" pageScale="1" pageWidth="1169" pageHeight="827" math="0" shadow="0">
      <root>
        <mxCell id="QZrUhBiyouBz7buWu0eF-0" />
        <mxCell id="QZrUhBiyouBz7buWu0eF-1" parent="QZrUhBiyouBz7buWu0eF-0" />
        <mxCell id="QZrUhBiyouBz7buWu0eF-2" value="u_cmdb_ds_sstdb_mobile_device" style="html=1;outlineConnect=0;whiteSpace=wrap;fillColor=#dae8fc;shape=mxgraph.archimate3.businessObject;overflow=fill;strokeColor=#6c8ebf;" parent="QZrUhBiyouBz7buWu0eF-1" vertex="1">
          <mxGeometry x="680" y="596" width="210" height="61" as="geometry" />
        </mxCell>
        <mxCell id="QZrUhBiyouBz7buWu0eF-3" value="u_cmdb_ds_sstdb_accounting" style="html=1;outlineConnect=0;whiteSpace=wrap;fillColor=#d5e8d4;shape=mxgraph.archimate3.businessObject;overflow=fill;strokeColor=#82b366;" parent="QZrUhBiyouBz7buWu0eF-1" vertex="1">
          <mxGeometry x="200" y="270" width="780" height="61" as="geometry" />
        </mxCell>
        <mxCell id="QZrUhBiyouBz7buWu0eF-4" value="" style="fontSize=12;html=1;endArrow=ERzeroToMany;endFill=1;rounded=0;exitX=0.75;exitY=1;exitDx=0;exitDy=0;exitPerimeter=0;" parent="QZrUhBiyouBz7buWu0eF-1" source="QZrUhBiyouBz7buWu0eF-3" target="QZrUhBiyouBz7buWu0eF-2" edge="1">
          <mxGeometry width="100" height="100" relative="1" as="geometry">
            <mxPoint x="372" y="259" as="sourcePoint" />
            <mxPoint x="720.5" y="124.5" as="targetPoint" />
          </mxGeometry>
        </mxCell>
        <mxCell id="QZrUhBiyouBz7buWu0eF-5" value="Account Asset" style="edgeLabel;html=1;align=center;verticalAlign=middle;resizable=0;points=[];" parent="QZrUhBiyouBz7buWu0eF-4" vertex="1" connectable="0">
          <mxGeometry x="-0.0458" y="-1" relative="1" as="geometry">
            <mxPoint as="offset" />
          </mxGeometry>
        </mxCell>
        <mxCell id="QZrUhBiyouBz7buWu0eF-6" value="u_cmdb_ds_sstdb" style="html=1;outlineConnect=0;whiteSpace=wrap;fillColor=#dae8fc;shape=mxgraph.archimate3.businessObject;overflow=fill;strokeColor=#6c8ebf;" parent="QZrUhBiyouBz7buWu0eF-1" vertex="1">
          <mxGeometry x="290" y="376" width="211" height="61" as="geometry" />
        </mxCell>
        <mxCell id="nOgDpOELrUmh-xIW-mkz-0" value="Account Asset" style="fontSize=12;html=1;endArrow=ERzeroToMany;endFill=1;rounded=0;exitX=0.25;exitY=1;exitDx=0;exitDy=0;exitPerimeter=0;" parent="QZrUhBiyouBz7buWu0eF-1" source="QZrUhBiyouBz7buWu0eF-3" target="QZrUhBiyouBz7buWu0eF-6" edge="1">
          <mxGeometry width="100" height="100" relative="1" as="geometry">
            <mxPoint x="636" y="280" as="sourcePoint" />
            <mxPoint x="689" y="356" as="targetPoint" />
          </mxGeometry>
        </mxCell>
        <mxCell id="nOgDpOELrUmh-xIW-mkz-1" value="u_cmdb_ds_sstdb_ci" style="html=1;outlineConnect=0;whiteSpace=wrap;fillColor=#dae8fc;shape=mxgraph.archimate3.businessObject;overflow=fill;strokeColor=#6c8ebf;" parent="QZrUhBiyouBz7buWu0eF-1" vertex="1">
          <mxGeometry x="484.5" y="486" width="211" height="61" as="geometry" />
        </mxCell>
        <mxCell id="nOgDpOELrUmh-xIW-mkz-2" value="Account Asset" style="fontSize=12;html=1;endArrow=ERzeroToMany;endFill=1;rounded=0;" parent="QZrUhBiyouBz7buWu0eF-1" source="QZrUhBiyouBz7buWu0eF-3" target="nOgDpOELrUmh-xIW-mkz-1" edge="1">
          <mxGeometry width="100" height="100" relative="1" as="geometry">
            <mxPoint x="699" y="341" as="sourcePoint" />
            <mxPoint x="611" y="416" as="targetPoint" />
          </mxGeometry>
        </mxCell>
        <mxCell id="bbkIb_2BpiMl1Llelwy9-0" value="Account Asset" style="fontSize=12;html=1;endArrow=ERzeroToMany;endFill=1;rounded=0;exitX=1;exitY=0.25;exitDx=0;exitDy=0;exitPerimeter=0;" parent="QZrUhBiyouBz7buWu0eF-1" source="QZrUhBiyouBz7buWu0eF-3" target="QZrUhBiyouBz7buWu0eF-3" edge="1">
          <mxGeometry width="100" height="100" relative="1" as="geometry">
            <mxPoint x="762" y="341" as="sourcePoint" />
            <mxPoint x="828" y="416" as="targetPoint" />
            <Array as="points">
              <mxPoint x="1030" y="276" />
            </Array>
          </mxGeometry>
        </mxCell>
        <mxCell id="IjPX03EnL8JCXqF9PUWD-0" value="Parent Id" style="fontSize=12;html=1;endArrow=ERzeroToMany;endFill=1;rounded=0;edgeStyle=elbowEdgeStyle;" parent="QZrUhBiyouBz7buWu0eF-1" source="QZrUhBiyouBz7buWu0eF-6" target="nOgDpOELrUmh-xIW-mkz-1" edge="1">
          <mxGeometry width="100" height="100" relative="1" as="geometry">
            <mxPoint x="579" y="217" as="sourcePoint" />
            <mxPoint x="677" y="346" as="targetPoint" />
          </mxGeometry>
        </mxCell>
        <mxCell id="IjPX03EnL8JCXqF9PUWD-1" value="Parent Id" style="fontSize=12;html=1;endArrow=ERzeroToMany;endFill=1;rounded=0;edgeStyle=elbowEdgeStyle;" parent="QZrUhBiyouBz7buWu0eF-1" source="nOgDpOELrUmh-xIW-mkz-1" target="QZrUhBiyouBz7buWu0eF-2" edge="1">
          <mxGeometry width="100" height="100" relative="1" as="geometry">
            <mxPoint x="503" y="447" as="sourcePoint" />
            <mxPoint x="503" y="496" as="targetPoint" />
          </mxGeometry>
        </mxCell>
      </root>
    </mxGraphModel>
  </diagram>
  <diagram name="concept" id="jkI73sEsG22GYty13YCX">
    <mxGraphModel dx="1488" dy="1205" grid="1" gridSize="10" guides="1" tooltips="1" connect="1" arrows="1" fold="1" page="1" pageScale="1" pageWidth="1169" pageHeight="827" math="0" shadow="0">
      <root>
        <mxCell id="9fLYsi1BFuuNNnZ7QCJi-0" />
        <mxCell id="9fLYsi1BFuuNNnZ7QCJi-1" parent="9fLYsi1BFuuNNnZ7QCJi-0" />
        <mxCell id="9fLYsi1BFuuNNnZ7QCJi-2" value="u_cmdb_ds_sstdb_mobile_device" style="html=1;outlineConnect=0;whiteSpace=wrap;fillColor=#dae8fc;shape=mxgraph.archimate3.businessObject;overflow=fill;strokeColor=#6c8ebf;" parent="9fLYsi1BFuuNNnZ7QCJi-1" vertex="1">
          <mxGeometry x="230" y="140" width="210" height="61" as="geometry" />
        </mxCell>
        <mxCell id="9fLYsi1BFuuNNnZ7QCJi-6" value="u_cmdb_ds_sstdb" style="html=1;outlineConnect=0;whiteSpace=wrap;fillColor=#dae8fc;shape=mxgraph.archimate3.businessObject;overflow=fill;strokeColor=#6c8ebf;" parent="9fLYsi1BFuuNNnZ7QCJi-1" vertex="1">
          <mxGeometry x="450" y="170" width="300" height="61" as="geometry" />
        </mxCell>
        <mxCell id="9fLYsi1BFuuNNnZ7QCJi-8" value="u_cmdb_ds_sstdb_ci" style="html=1;outlineConnect=0;whiteSpace=wrap;fillColor=#dae8fc;shape=mxgraph.archimate3.businessObject;overflow=fill;strokeColor=#6c8ebf;" parent="9fLYsi1BFuuNNnZ7QCJi-1" vertex="1">
          <mxGeometry x="19" y="740" width="211" height="61" as="geometry" />
        </mxCell>
        <mxCell id="cwtJszPjDHmDqMK8JNNf-0" value="cmdb_ci" style="html=1;outlineConnect=0;whiteSpace=wrap;fillColor=#dae8fc;shape=mxgraph.archimate3.businessObject;overflow=fill;strokeColor=#6c8ebf;" parent="9fLYsi1BFuuNNnZ7QCJi-1" vertex="1">
          <mxGeometry x="830" y="170" width="211" height="320" as="geometry" />
        </mxCell>
        <mxCell id="y_-gR4mYZfSuQmfMLG3N-1" value="u_cmdb_ds_sstdb_accounting" style="html=1;outlineConnect=0;whiteSpace=wrap;fillColor=#d5e8d4;shape=mxgraph.archimate3.businessObject;overflow=fill;strokeColor=#82b366;" parent="9fLYsi1BFuuNNnZ7QCJi-1" vertex="1">
          <mxGeometry x="570" y="280" width="180" height="61" as="geometry" />
        </mxCell>
        <mxCell id="y_-gR4mYZfSuQmfMLG3N-3" value="" style="html=1;outlineConnect=0;whiteSpace=wrap;fillColor=#dae8fc;shape=mxgraph.archimate3.businessObject;overflow=fill;strokeColor=#6c8ebf;" parent="9fLYsi1BFuuNNnZ7QCJi-1" vertex="1">
          <mxGeometry x="230" y="219" width="210" height="61" as="geometry" />
        </mxCell>
        <mxCell id="7jz4u-_4-rWQag2MPiP3-0" value="Account Asset" style="fontSize=12;html=1;endArrow=ERzeroToMany;endFill=1;rounded=0;" parent="9fLYsi1BFuuNNnZ7QCJi-1" source="y_-gR4mYZfSuQmfMLG3N-1" target="9fLYsi1BFuuNNnZ7QCJi-6" edge="1">
          <mxGeometry width="100" height="100" relative="1" as="geometry">
            <mxPoint x="610" y="461" as="sourcePoint" />
            <mxPoint x="610" y="616" as="targetPoint" />
          </mxGeometry>
        </mxCell>
        <mxCell id="7jz4u-_4-rWQag2MPiP3-1" value="acat software" style="html=1;outlineConnect=0;whiteSpace=wrap;fillColor=#dae8fc;shape=mxgraph.archimate3.businessObject;overflow=fill;strokeColor=#6c8ebf;" parent="9fLYsi1BFuuNNnZ7QCJi-1" vertex="1">
          <mxGeometry x="450" y="429" width="210" height="61" as="geometry" />
        </mxCell>
        <mxCell id="hhnavEWnYbxxdJ_L_T2r-0" value="Parent Id" style="fontSize=12;html=1;endArrow=ERzeroToMany;endFill=1;rounded=0;edgeStyle=elbowEdgeStyle;" parent="9fLYsi1BFuuNNnZ7QCJi-1" source="9fLYsi1BFuuNNnZ7QCJi-6" target="7jz4u-_4-rWQag2MPiP3-1" edge="1">
          <mxGeometry width="100" height="100" relative="1" as="geometry">
            <mxPoint x="513" y="567" as="sourcePoint" />
            <mxPoint x="513" y="616" as="targetPoint" />
          </mxGeometry>
        </mxCell>
        <mxCell id="hhnavEWnYbxxdJ_L_T2r-1" value="Account Asset" style="fontSize=12;html=1;endArrow=ERzeroToMany;endFill=1;rounded=0;" parent="9fLYsi1BFuuNNnZ7QCJi-1" source="y_-gR4mYZfSuQmfMLG3N-1" target="7jz4u-_4-rWQag2MPiP3-1" edge="1">
          <mxGeometry width="100" height="100" relative="1" as="geometry">
            <mxPoint x="653" y="290" as="sourcePoint" />
            <mxPoint x="627" y="241" as="targetPoint" />
          </mxGeometry>
        </mxCell>
        <mxCell id="uvFl_pgRXVJ5wR2HC7mC-1" value="u_cmdb_ds_sstdb_accounting" style="html=1;outlineConnect=0;whiteSpace=wrap;fillColor=#d5e8d4;shape=mxgraph.archimate3.businessObject;overflow=fill;strokeColor=#82b366;" parent="9fLYsi1BFuuNNnZ7QCJi-1" vertex="1">
          <mxGeometry x="800" y="700" width="180" height="61" as="geometry" />
        </mxCell>
      </root>
    </mxGraphModel>
  </diagram>
  <diagram id="QzCt6zLB2-kIAb3pP6EM" name="CMDB">
    <mxGraphModel dx="1263" dy="831" grid="0" gridSize="10" guides="1" tooltips="1" connect="1" arrows="1" fold="1" page="1" pageScale="1" pageWidth="1169" pageHeight="827" math="0" shadow="0">
      <root>
        <mxCell id="0" />
        <mxCell id="1" parent="0" />
        <mxCell id="u8urwFFeCkJSaz-8R4e5-1" value="" style="shape=image;verticalLabelPosition=bottom;labelBackgroundColor=default;verticalAlign=top;aspect=fixed;imageAspect=0;image=data:image/png,iVBORw0KGgoAAAANSUhEUgAABvQAAACVCAYAAACHMh1CAAAAAXNSR0IArs4c6QAAAERlWElmTU0AKgAAAAgAAYdpAAQAAAABAAAAGgAAAAAAA6ABAAMAAAABAAEAAKACAAQAAAABAAAG9KADAAQAAAABAAAAlQAAAAD5Tkm8AABAAElEQVR4Aey9D3RcV33v+5OhrJVF77Uh/0bBxlqR6BUuRCryaqSXpMgELSVIRQIKkcgzKFkhzk2QpYLAEqbxsl+MFGpayWpSO85KBF6pJuFCNVQi0VVSi5vkSaxnUQmKI4rEtaoQj4N9Y9em4T7K0/v99j77nDOjOaMzoxlp/nyPlzxnztl/P2f27+y9f/v32wVLfBAOEAABEAABEAABEAABEAABEAABEAABEAABEAABEAABEAABEAABEACBjCSwISNLhUKBAAiAAAiAAAiAAAiAAAiAAAiAAAiAAAiAAAiAAAiAAAiAAAiAAAgoAlDo4YcAAiAAAiAAAiAAAiAAAiAAAiAAAiAAAiAAAiAAAiAAAiAAAiAAAhlMAAq9DH44KBoIgAAIgAAIgAAIgAAIgAAIgAAIgAAIgAAIgAAIgAAIgAAIgAAIQKGH3wAIgAAIgAAIgAAIgAAIgAAIgAAIgAAIgAAIgAAIgAAIgAAIgAAIZDABKPQy+OGgaCAAAiAAAiAAAiAAAiAAAiAAAiAAAiAAAiAAAiAAAiAAAiAAAiAAhR5+AyAAAiAAAiAAAiAAAiAAAiAAAiAAAiAAAiAAAiAAAiAAAiAAAiCQwQSg0Mvgh4OigQAIgAAIgAAIgAAIgAAIgAAIgAAIgAAIgAAIgAAIgAAIgAAIgAAUevgNgAAIgAAIgAAIgAAIgAAIgAAIgAAIgAAIgAAIgAAIgAAIgAAIgEAGE4BCL4MfDooGAiAAAiAAAiAAAiAAAiAAAiAAAiAAAiAAAiAAAiAAAiAAAiAAAm+Nh2BqairebdwDARBgAhUVFTnPAbIg5x8xKpgCAvkgCwwmyARDAp8g4E0gX2QC5IH3bwB3QMAQgDwwJPAJAiAAeYDfAAiAgCEAeWBI4BMEQCAReRBXoScoP/CBD9hEl5aW7HP3yYYNMPRz88B5/hDIp0ksyIL8+V2jpokTyCdZYOhAJhgS+ASB5QTyTSZAHiz/DeAKCBgCkAeGhPOJ+QOHBc7yh4DMp/3oRz/KnwpzTdE/yKvHjcomSAD9g+XA0D9YzgRX8oNAovJgRYWeYCso0J2OgoL8gIhaggAIxCYw+6v/L/YN++rv7DOcgAAI5D4ByITcf8aoIQj4JQB54JcUwoFA7hOAPMj9Z4wagoBfApAHfkkhHAjkPgHIg9x/xqjh2hCAad3acEYuIAACIAACIAACIAACIAACIAACIAACIAACIAACIAACIAACIAACIJAUASj0ksKGSCAAAiAAAiAAAiAAAiAAAiAAAiAAAiAAAiAAAiAAAiAAAiAAAiCwNgRWdLkpfr7hanNtHgZyAYFMJmD20Bz422/Q2Mjf08L8z2MW96prrqW+J79DW69/T8z7uAgCIJAbBCATcuM5ohYgkAoCkAepoIg0QCA3CEAe5MZzRC1AIBUEIA9SQRFpgEBuEIA8yI3niFpkBoEVFXqZUUyUAgRAIBMIPH74Yfp//u9x+tunhlVxzr62aBfr+j/Yps7H//s/0Bfu+RT95dFBuv49pfZ9nIAACOQeAciE3HumqBEIJEsA8iBZcogHArlHAPIg954pagQCyRKAPEiWHOKBQO4RgDzIvWeKGq0PAbjcXB/uyBUEspLApX+7QAcPP0n/+OwQ3fupWvr8zo/af8233UjBJx+hihtvofu+8FX63jPf8lXHp8pL6Kkf+wrqO1CsNM8/dxd9kPOK+Pvz78RN84U/5/BP/FPcMLgJAvlMIB0yQXiqtme111TLh3x+Xqg7CKSTQFrkwbnv0F73u3sd38lPcZ/hfDoBIm0QyCECKZcHP36I+/B30QvnLEiWbFhNHyHWeCGHHgGqAgIZQyDl8kBqlsr+gZIvMk9wF4W+LXMGD9FP00lPyq76M7/SY54U9G3c8kzmPVYjG9NZdaQNAimXB3b7dc/1pbENR+W397lfJf1Q7TmPJ/4xZbIgXmEc2fBPJDJjNWVX+SgWDuufPuHqp8UrCO6lhAAs9FKCEYmAQH4QeP8H/pjua77drux/2riJLl28oL5ffOM8/eyfZ+jpgSP0iTvvofa9X7PDZc5JCz06/VX6Q6tAuuP7CbrzhswpIUoCAtlEIC0ygTuGB07othrgAenH2YXvbX/9Cboym8CgrCCQhwTSIQ+e+vAe2vatOTpovafV4PO6CTp429VrSvinT5TQY/Qw3bamuSIzEMheAumQB9lLAyUHgfwm4JYH/375Ev3nTe+gf7vwhoKS7BxCKvsH51+bJ9rxMH3XGm80fDK9z+uFg3vopfd/W2Vy61/P0a2pzI6VhX/V+SL3nVKZKNICgdQRSIc8ILqFHnz+Sbr1Kl1OUZT93XO7Uj9eEGX8Z+Y5L263kpd8/3AVPXXdXFJziuETRPfyOEfPR6ZYFkQ/sijZcOf0XHSI1X3nOZz7DxM9+NHVJYPY/gnAQs8/K4QEgbwnIJZ5tzXcwRZ4f6FY/NXj36bf//3ft/8++Zl7qetrh+nbxx+je+9Y3bSXTJ7Z1nQuSzp7FYus2Hddl0k+Ff6Jh/w9J36hnTIh5UVs4sdcqWKtnjNhrHyV1d+fP0RPiSWf3HOVx11+e4WcezWPWYmnrt1FeyUNjo/V/+ah4DMbCKRPJgzQNFvuXnnbk/QDlzLPbuf2yllrddmfy2rau+ib/dyOTNtS7dpZJbZSXHvVfzaARxlBIAMJpFoeyDv2MZ5gu8216EYGn7Yyz/1ONZY71vt8r5IJ8m5+iF6wLfSNPNBy4ynuL5h+hnlPi5ww5+o9Lu9la4BKJ/bQx9V7WsfXcc2q1EhZBHmSgT9QFGlNCaRaHsQvfLx+OvexpY9u9Q3svoA9XrDkgeUtRN23wioZwOfuPr1tuRPVf5fyOWMUI2vilxp3QSBfCETLg28ce8aeP5C5hETnEJLqH5DHu5/b8sdZAWbe8XOqz2C92139DN1n0Nf1HIA1brf6HdJ30NddMscVX/oMJswBnsSnw59kufSTSKuciPCOHBHZspdllpmv8LaqYVkoykJO/rHPWP0Zd5qWbFPl5H6Tmn9Q8vE7jvxyzWfky+8T9VxbAqmWB7FKL4oyfcTuH8g9uz/g6vvrtiHjh9jWaz/9Hrev3bttxSFd9Qk6yGMTYyAQ0V8wbUm1QZ4ztOc3RY7ocj3G5dBt1SpnRBuVcrC1LVu96XnCyP6KPU6x0jJjn6d+HLvO0bJB6m9kif9ya6rL/+eyfWaAL79IBz4ssstdBkeW6TJbMlLl/x3nOVh1X542rngRgELPiwyugwAILCPwf/U+QXc98CXa9E699OUH/13vpWcC/qeN76DtVR+k//NzrfQ/f/4Kvba4YG4l9skvvfsPi4XOHP1geoIepD32y0ZWsf1Arn+rhTvew8r1jrwYZNLvu3J9O78UPXMboPv5xaEm4XjV/0u7v61fvtaLWNJ9dDfRS6P/gxVrbtP5qylWviqbE/MU2Mv5Pv8w3cyTfWoi0F1+Ludjn5GXtn7JyQocVaeffNKuk7z4tt3F112KC88q4AYIZBCBtMiEG75K3+25RXVuVVu1OneqnXOblXb63Z55ut90kpnHS+/fzdefpM9+sIUHyCPKTY67w+0nrlnRl0F4URQQyCoCaZEHcQjIwFG/U0UmEB046HKjXft1lgnfpntpgP6R5Jz7EjtepH886bzbH6M6S56IvNHv6ZjZsUySvoFZvR9+4pP02AqyCPIkJklczCMC6ZEHMlHk6sfbPOP104k+xCvpf3D3HynF3PLxwh9RObfvx06yi33uv6sxhOpH/BNN80rze7f/Ef3h3dJ35z/p67NMkQVH+nD67zIJeICteNVY5FvFXE498W9C4hME8plAeuSBN9F4/QPz7pf3+mPsBeS8Ne4w7/h32MnqsfvNPROq/Zdz2/d1sCLByBzitJXsYPnx4A4tZ6687evqnKQfcff7I5KMV+6XfvJe+oIaA91CL3Ue9XAJyrJwr8gpY/UTb/6ByylzGDKncpjndOz5DD2/ElEwfAGBFBJIjzxw9Q94vk/e9V9Q3jxi9w/knf0YmflGSyHHyvm/6mQLM+kz8BhiWydb3tnvex8A3HOAUXOYJPJju05XxiZ/9xzx/KKMU0xbdaWvyvGiNcb5OgV+wgsOfBwvUb3qg9x5Q+w6R8oGV4IJldsZR7lS4NM/ojtFlliWkuUnv+zdJzpRTJ+2ZdkrVC79KyWH9BxOZLr4Fo/Aii43N2xIo85v6km65k9HospXR99/7S7iOXlfx+Hr/ozoH/4b7a7wFXzVgV4feojeF7qJ/vnJHXTNqlPTCXilKXWLtjX6ary6Kp6/pKPsUvBjqSpciuqIZLKfgJEFb3nLW1hp9yf0B6Xvo2e++beqYm9729vopg/dTkXFf0Cyye13nzpGv/d7v0dXXVuYVMW124t6K+7VFOC+7kuvvcrfr1Yr39QqOnX3Fif991+vXfJxx1lekrGPSJebarXbc9p1l5yr1XISkTvc0Ye89GPmu6Oeyq/i0GZPDz415Q9IIqojL/e/Q3/HHy/xajlb4fh+rtN1EqiFym+QTxwgkD0E0ikTlGUeG/nqdneYXvjo14l+wmxO8GpWnmDTRzEPZq9XpzLhpg5ubw/uEBcb76VtMhH3Lbn+Kwr7iatTwP8gAAJJEEinPIhZHH6nnuJB44fUO5Stea8rZvnwCv1073tV8G3XiUtO6TcQ6fPlA1AjN1RcFdLPf5AnfighTH4TSJ88cLnUYhmwlxfnmWPFfroJGGO88IfbW4g+M0Iv8GIh2t1C9x5mpd0TPPkuk33SP+fJrg+qlec6kW0mLVf/PfzaiyyDXqSPl5sytVCYxwZ/KGMEHCCQxwSi5UH59qq0zSEozF79g+gxg89novsQ3JZFTvg5zNyAFVasYJyxf5wEPMut+y831/6Jmus4HyeJZbfO/UJ5JIqef/iC6jsVU0Dk02sSyzp3zWcsSwsXQCAFBNInD1z9Ay6nLOb9+BPXq8U8sfoHV962m+7t/CQv9h9QtRLF/cHrXmHr1hfpJV44dMCq682vcftjBZmfw8wB6rCuOcyk5vtuoYCKdzWV1/Kc5+jKJTAyQkLGqrNXCqktt87Fq0+k5kd3vJfUpwR1n3sVENc9CaRRW+eZZ9SNclZA/Td6/TX9d7R2hPqHtD/tqIB5+fX2R4/ZbP750XJ66G9O0Ot5SQKVzgQCJyf+B8397KeqKF975Dg9sOcAfeRjzbR7bzd94cGvk9z/9reOKCu+7/9wjkTRl8yhJ+aG1UBY4stk/M3XbVYD6o93FmvLPbUCxJX6T36hv5jVta5b8U5FUSgv/APsx95Y6C0Lz2l65rsssDOxqG7JhIO4AuNBhEwAGGsCtVqPVwvjAIFsJpAOmSAdUOO+1j3RLop9tZpVVnGpP9kPc3kbkk7vS5171EScVpTrDrWfuNn8LFB2EFhvAqmWB1dur1eW73/l2mzedg9zlbxTHYs7PRjVyjy/HJRFDgdWcV2RTsngnQ+1EMB13Zz6lUUmPD5BIB8JpFoexGWYSD891njhhjq1GPAAu927d/tXtcUeK/Vodx39ofTjrf1ytIVe7JIEruMJN+MtxOqjwFI3NitczT8CqZYH6e4fuJ+Q6RP89OSA+7JaRKQuvCZKgFiHdjl3Sln4iZeAWGFc11LQr3Glpk9Vmph/WMYFF9aVQKrlgWdl+H0vbvO95vHEjb/MKYhnIOWh67r3snWrKAbNXIPLzb+ViVLss7tc23JPzfVp97aec5ieBYx340UKK2U70fQoLxhyHUYmeY1TZBGSV51dydinqS23ThZ9IhtvWk/emtbUk0h8UTTPDRLxDfr7uz5Hu4wmuvYBep2t4uSwLde+UkdfVVd02KGGY/TNxndwvD+jXaTD29Zvnz9N73NZA2pLt3/htL5CU7Xl9Cznc3T6AaI9Tp6iaPRt6fb6Cfps+SP0rCoPkW1JF2WFaK6rct0/rUJ/9SvlVqz4H//6qoS/SQVSdYzBxk4hZr66vsTcHvraiApqykPu8F/5Gr3++T9Ylo/hIXkPkTCbduppZ4yTXCZw+d8u0kOdD9AHbryZ9n/jMbWfnqnv1ORL9Bftd9Oeh3rpQ7epRmxurfgpfqPtlWvK/YS4tyqh+83qGLmmTObF+o6vy0qaHbfwC1e/6G69m83Vy9lyR1bFyspazxzF5SbHtQ9eefvX7Ernxy28Mldb/tzM6coqf6I/sUORGuhbK3hc+ToBos7YSkjK/3ErL1nxc+tVVxOxEvKDdl0jrQWjUsBXEMgKAumQCWKd9+CouNTi9syH3X7Y5dW94jLXstDTG0izi6yoQ+Lf21lCp3p2scJPH+Iuy0/cqKTwFQRAIAECKZcH4g77efYCxZvNf7DTKojdH7hauXb54GfMPXmnfkJNvvst8r00wnLmkyr4vd96UsmLgLj7ZRc7H+zkPoZr8k0NTA/LHnrshUBc5EifYwVZ5LccCAcCuUgg5fIgHiSf/XS7L7BsvKDdbtJhvSJeW+IMKHebdNVm+tCOPcrV5wGe6BO5oCbT1Mp5p1Cm72Is9NRqfzV2ccLgDATylUDK5UEy/QPe/kLPvvl/CuJCzvQz7uU5BnMY6x411ldzA+aO83mePQvJIsMDqk/B4xmZYxAFAy9GVAuDZA89ngF50I6iXdaZ/MSDj+rXiKcRO4yPE0uJJ/MrxFt96DqYuRY9/2Bbx/hIDkFAINUEUi4PVAG1y01jWaddP36Crrzqn3huMMY83ms8BuD5P3PIOOBKtlj9Qs8wfdzMQcoinegtccT71rfINaen5yr0Hnoec5g/Nrn4/GT5psqh5g1voXt3i+yQuH9Et3mMUyJS5jLGmjOlG7SBgZYN33aiWHOXy+ZeEy23UogOqD30HnyeXQuPVtleC9AncnCn8qxgiQ+vBKempqiiooJvT3kFWd11txLJpORSJplLWtmkXUlueebP6CNTD2iXl1Z8UUo1LVquMB8m+pJSrInln1bQGUWfSU8pwypEaSXKwa/QQ1aetvJP3GmqtGmZ+8+IMCZB/lRKLkuhqMu7PK6d76d+qZR/Fcp9pqW4ZAVktBtPW3HpykeUajexO03bo6Yqp+Vmc1FcmC53uWnnG1Xfk39jWL6LgsxBuy61lH5uphE8GmlRFK0xyusqZt6cchOx2khuV9nIglde/x39cvE0Hez8PP3LKz+h//jtb6mgoEBV/j+/4510T+seZbEnbjlxgEA+Efj3xem8kAXmmUImGBL4BIHYBPJJJmSfPOA9ZUSRJxNdcHcd+weMqyklAHmAMUNKf1BILKsJQB5kjzxQW3KIFx/2qqNd2ImnIPEQggMEUkMA8iB75EFqnri/VMQjiVj3HuSFQeJN7P6fxFAu+ksKobKIQKLyIAMs9ETxxnu+KWXUCN2+ma1YrMNtxUZsEWYfFe/SCq2Ku9hCb0Rdvub/uIluv/9lernhXfRsrVjujdDQM0Psa7acGh9+hwoToSATPaV1fLVKW6MpCzi2OnvfdY9Yd+pokf1bbre1ZybG8k+xLKz4vM6HthTR7fSyHTd2vuW0ZYuk8w66qYHrFlqeplwRl5tidagOUd6VP0n/zHsMerLRIdX/sfNl60GrvnbQ13/JKlvmpMrzB7Sb3Z/KcXKC1zDF4CH3bucy+8AiQXHkGIF38e/70aeGl9Xqt6zck33zcIBAthP47rEeVYWPf86YhGR7jdJbfsiE9PJF6utPADLB/zOAPPDPCiGzkwDkgf/nBnngnxVCZicByAP/zy0b5cGtd7XQAcuLj9TUWPP7rzVC5hMByAP/Tzsb5YH/2q0+pGOJJ2mJG1C2Nlx9skhhDQmshTzIgD30LKKsnJM94p69/xH6e9kkjpVX77v/XWwhx3vr/UNdJPapX+rvHOYhc+caVkjVTtOu+1kp2NBITaxwepbdSj5bexNbtIkV3J/RlNqP7hgdrTWRIj/fvZkVa+za85+t/fxeZ8WZX5ebWzjNhyb+RSfIFkzP0rtoywr5Li7q4C+HWHGWwPHy83HYqHT81dfO8pp3UQU7IDDlEVaf5X0MY/OwlIt2ZJyAgCYAZR5+CSAAAm4CkAluGjgHgfwmkFnygN1a8Z4ZsM7L798kar9+BDJLHqwfB+QMAiBAmb0gWNzrWftsySf6DfjFgkB6CaB/oPmKG29H9jzJ2/eklztSz04CmaPQY37XNH6VLetYKbfnBL1ecZOysvvIdX9G1/zNL9niTSuctn/+a/TV0UfoGrk+wdZmNnfL0o2/V2x5BymLPT7XlmT63rP3f47jfU7t/0ZGKWjH1/kfpUfYQo/T5j9RasU8OH8TRsKJAvJjDz9At3/tK7pcvFff0em7aLtlfRed7+vX7KC/fJQVgH+q81msYEWix6Hj6nDXcLq3P9pIH/twbDbuJMTqLzpf9/3o892sNDXlEXeafylWgfw8lvPwYBKdIL6DAAiAQJYS+M1vfkPyhwMEQAAEhABkAn4HIAAChgDkgSGBTxAAAcgD/AZAAAQMAcgDQwKfIAACayEP1ncPPTxjEMhyAvm4h16WPzIUHwRiEhh85CH67f/rrcT7zJ/b9uAx4yfq7zpmIll00b1nVhYVG0UFAd8EIBN8oyLIA/+sEDI7CUAe+H9ukAf+WSFkdhKAPPD/3CAP/LNCyOwkAHng/7lBHvhnhZDZSWCt5UFGWehl5yNDqUEABFZD4Pzz7fSN58+uJgkd99Rh2n3nYfo5naWX9t1GT59KMklJZ98InfeIbqftEe7pO9vppV95RMZlEACBFQlkm0xYsUIpDAD5kkKYSCorCEAe+HtMP39C+j/+DsgRf5wQKvMIZJs8sMcMq0ApaaRknBSjDJAFMaDgUtYQyFx58GNC28qanxEKmiME1koeSD67n/hxjlBDNbKdwFuzvQIoPwiAQHYT4C0h6cbeazOnEtt20+H9yRfnA7fO0vdmztLNH86gOiVfnbyJ2fyA48D56Ne+qOq96yvfyJv6Z1JFc00mpJIt5EsqacZPCzIhPp+1ugt54IM0LzDqf4Go9W4fYTkI5Ig/Tu5QkAduGut3DnmQWvaQBcnxhDxIjluqY2WyPEDbSvXTztz0IA8y49mslTy4sqyGtj45Tj+/+wZ6T2ZUHaXIIAJrLQ+g0Mugh4+igEDeEeBJqJdLamjf1brmsgr1mTk5/wi1PrWb3skrYPY/OWtj+dRdH6Fnnvy+fV9eok/feRu9zJ9bS0r5/+v5Tx+vPs2rZ+Ykrk7L64Ubned7xPLu6WLat7+OrjSJeX6O0cCd/fruXd+kL7IS7z2VH6GFp08SfbjOMxZugAAIeBDIQpkgK/VsOXXr1+kwd/BJ5MhBkVVEN+19ju7YRspy+IdUSgtzAaouGaf/eYuWGT9/4jbqJx3PlkclrbywgGWIkke/oK0iy0TGQL54/HBwOScJZKE8cLf9rVa/gH41Qt9o132FBattR8gNfnjL+jfuti8P10pLZMQv7xCZIt4IPsvn36R3Pa1lTf+drNR76g46y9dVXwpyJCebRd5WKhvlgTysSdMfsMYjbnlgxiju9s5tvYW67X7F1hJJ5FdWe+e2f7WWJ5ulb6HO5+mjvcX0PSNjPNL84nVPL+uXYMwibHFkJYEMlwdoW1n5q0Khs5XAWsqDq7fTjSX99KNTu+k9PL7HAQLrSQAuN9eTPvIGgTwncP61X7AmbotSnMnk1jPUSvueeo5ab/0+fc+44eQJKX2N6Jl/rabDT32dbqLv80uUSOK8bN1vuSUK5i1dHPab9KkSV1pRQTzzjArn+XXuevool/eLe1mJ9+TT2t3V1cU8+T7v2/WVZ9q4AQJ5SCAbZcIrL86STNwfZlmglHn83J4++Av6VC9/722lVw9qV8DqcSq51Ekfv4Nlxosn6Tz9mH70Qil96k9vUPLsma2s2BMZuLXfcbFl5IxY/UK+5GGryN8qZ6M8eJoV+aLEl7ZPql/Arrd4ol0m378ofRJW39vu8+L0b9RTN23f7mPEck9+Ld3M8sQsXnrn890EOZK/bSaXa56N8kCex6vvviNi7EJX17EsEHnwnBqjyHhGHaa9f/gsPc+LGZUc4THPZrXQ8Wp67y2l9PIku/n61bwKLufnZ8Zo4dZqeo+PNJf3SzgZ9Ck0e/yfdQQyXh6gbWXdbwoFzl4CaysPrqVrt/K7/bVYffLsZYiSZycBWOhl53NDqUEg5wj8r39lC5Stdyvl3pV380CXa3j++chqbn23dmP5Ll6t+ku+5Y5D1znWeRJr83U6rLxwF/5VXrjLXWC645s8yQysJZGVjpJiHUI67TRGZ3nvPC9LwJWSwv3MIQBXm5nxLGK1z0yUCTKZ/szBz9Judh9MMkH/ee7k0yy93M4WxxbKs7+6Q50ZuUTs2vemuXZ65fnrbStlVd8Xvky72XWeOm5luXUdn7Gcead1CR/rQwAyYX24u3PNCnnAljevshXujeJ1QE2w8ydf+565xv0QmZR/Rvok73bXjrs/Uf0bdTdGHyMy1vJvkCPLmaT6CuRBqokmnl5WyAOrWua9b8Yuctm2xufzm6xw9rv+V4uOHGGZIfFe5TDGzdfTvKhx8128YODFcXp+gRV/d7BXAD5WTjO6X8LWBSom/lsNAciD1dBLTdxskgepqTFSyVQCkAfr/2TWQx6sf61RgkwksBbyYN0VeuHhR+ggfZr669+xumcw8/dU00F0aKyaFlsfprl7eqi9LIkkJZ3HC+l4fyUFYkQfbu3UaVP8cDGi+rtk1+NjlEzx42UirHfO3U5j7ZGKj3hxcG9lAvv3r2LDtZWTz4gQ9fX1aS/HO9/NLjNfXOR8biDjgm5f1IRXdCHccdTKHJfLTVm5ese2G+jsAk+U3bJcmSdpueObPA9XRucS5/ucKPHq6D28WnaB8/6oTOKxUg9HfhLIB1lgnixkgiHBn7LvJrsI1m715ul/XV1Nm2UCv7eXbrbcCUvol1xR5FT21+jnVfhi3afc+4oMvPVu28pPBT81rj7wX3YSyBeZAHlg/T5ZibeZLfB+qfoB4hZvjOXA3XxtVl9jeaAsej36JMt+5TH6GLI8Sa0KZjc/v1SWO3yBFxURaasd1a+BHFmGMhMuQB6k7inE6r9n/JjBqr6MN37ILrdlv27lNjcay9VbImSGaufihcRy8/WMWPX3bmEL4H7ecoDPWa74S3N5vwRjlmj4a/cd8iB1rLNZHqSOAlLKZgKQB6l7eushD1JXeqQEAokRWHeFXrCPqPb4KpV5idU5fuiyj9GYtSVW/IDZdzewvYJK+2ZohhV6qVYWZh8NlDgTCFwpVnWWEu/KD/fSp168jXarPelknwlecRploRdd5is/3MVx2DKG4+g99JwQWxee4Ots9Sd7SeyPrdCLmWciE+glRD9kK5wfci4yKa9Wuopyz6yqd4qDMxAAAR8EslEmqMUAtlXd11kO3EDvvItov7HQU/vqLZdBsr8GvfB9urFM3xN5dBPvCWos9MRl583RzCBfoongew4TyEZ5cAe7x9x90Nrbl/sFN1/N7dt1TVnxivvcFfo36rG6+hjifk/6GO8UC78ntUWw7K21WQKyAuAmViTqPfTuZjniWPpCjiiS+C8HCGSjPIiFXe2tZVn1q/3xxG2XWONbx3nuQ0TIEW7n+tBuvohq6L1X30DX3kr08oKcs/We7K+7QpofXtYv4XEW+hQGLj6zjEDGywO0rSz7RaG42UxgreWBGAxsrlw+ts9mhih7dhIoWOLDq+hTU1NUUVHBt6e8gqzuepQ1nFi/9cn8O93IlnYfo2vFoqxPLHb00dZ2I/X1ydS5vi9Kqd6aThrhz9LSLTQ7e51toTdK8l3iOmH5y7IjOs+yqDJFR4i20CudHeJ1t5x/2x5PK0OJo8vD5TteSI/v1HHcZVtWj0NEHWwpOMaWgjO9ndQx32ifP16yh+6Ze5g6pOKuvCPysSwVFc9SHVfC2uWHRk9wrPrgJmK1kVUnldEJGFnwyuu/S3k5n76znd4VZcmS8kzWMEGZ3P/eu79JX5QJOxx5Q+DfF6fzQhaYBwqZYEis7Sfky9ryXk1u+SQTIA9W80vxiHvqMO1+upj27a/TFrwewZK5DDmSDLXVxYE8WB0/EzvXxgymXuv1CVmwPuQhD1LDPZPlAdpWap5xPqQCeZCap7xm8oBd6X+jfZ4+yt554LY6Nc8OqTgEEpUHb3Wirv1ZePE1ouIy5dpS3EH2USMdH6uks6zAeny4mvZKkVgZJe4v5VrHXBmNjZWxEu8xOjHDCr/FR2jEuk+i/FPKQKsetZ9WlnbD7H5T0orl0jNWnv3swcL3MXuG7hnrIaUE7Binmfo4bjJVebQlYj/XUQ5RrnnWo6yM6mafpeHwf9FedGan+PwamhvZoiway+p72HUmJ6IUkD+jcD2Hk8PKR+rWUXwvM7heKQRbh/+LYrCFvfKMLr5BVJZBVpG65Pg/TwnIitGBmbN0czoVYOrF289uMd2HWAF6v4ilI95vrG6saGKFt5Ki7kcvfIRf8FDmuUnjHAQSIZBrMiGRuq8UFvJlJUK4n2sEIA9S/0QhR1LPFCmuDQHIg9RyhixILU+ktrYEMlUeCAW0rbX9LSA3EFgTecCYz8+MEd3VBWUefnIZQWBdFXpuAmfn2Jqu+Hal3Au097DjGKLwsDsE6/ZKtBKqhLeZmeNb7ji0xeWrgu8Vb9FhRYE1O8cKLFquwHLHN3nSTGSecb+VFurb1xayB/spWgyzniwQO4Ypj9wVRZ62RCSq4+/ucjj1uJ521C3S48FxDtFIbXVDNBecYQVmBR2XPNRee2KtyAcrNc1h8lFpjjxGNZYVH9XFZmDi4RME1ouAuJn7Yroz531tvviUtDb/x3vufo73svIf3oS8Q/bSwgECIJA0gVyTCUmDiBER8iUGFFzKaQJ5Kw9kb8796Xm0kCPp4YpU008gb+VBmtBCFqQJLJJdEwKZKg+k8mhba/ITQCYgYBNYE3nAua1VPnbFcAICcQhsiHNvTW9dW8KmcfOvqzzFxWRN7y9WzN8dR1n7uWKMnNDxF+cdRaDrtjp1x/ebZ0QabDUnSjw6e4bdbl5HWzyUee44ks9o7R62NNxDbayYlMNdDnc9ynbcSLMjP6TZ4mtoO/MZ4XPi80B4klo7iN2LspXeoRt1IlH/qzTr2EJPwsgf75uHAwRAAARAAARAAARAAARAAARAAARAAARAAARAAARAAARAAARAIPsIrKuFXkCs6kZFiXc9BeofoLZRVuTVDPF32feOFVBRFnrReAP1n+Y4D6s4soee+yidf5avW3vo9S+3zpOwMfOcScBEjxVyozvZ2o7Tkj30/GxLp5R0HVxmjlQqCj12f+lZD2X5xzq8Hczn2gq2AlxU5xR4B9WWDlFHDSv4uN6ls1Iby+WmnPIhdavj/QWNhV7b8R6qZ4WjKDiLd8TmoWPifxAAARAAARAAARAAARAAARAAARAAARAAARAAARAAARAAARAAgUwiULDEh1eBzCb3xO4k03X01jxCJccfUMqmdOWBdC0CYtm3U/b9i7PXH2AlRGCKm0ZFRUVCcbIxsJEFr7z+u2wsPsoMAmknkOgGtmkvUJozgExIM2Akn/UE8kkmQB5k/c8VFUgzAciDNANG8iCQRQQgD7LoYaGoIJBmApAHaQaM5EEgiwgkKg/W1UJPuDa1ER08+QbV16fRakwpsobYLab7ECtAb8WWuMbsMPvPWdHECq8/TjmTieMuUbrPwydZ+9T2aV+WhOkuC9IHARAAARAAARAAARAAARAAARAAARAAARAAARAAARAAARAAARDwR2DdFXriGrLfX1mTDxWopP6xyoTil7XLvnMJRaFk4iSWw+pCrwnr1RURsfOMwE/Gv5NRNX5/9ScyqjwoDAjkGwHIhHx74qgvCHgTgDzwZoM7IJBvBCAP8u2Jo74g4E0A8sCbDe6AQL4RgDzItyeO+hoC667QMwXBJwiAQH4SuOOVOzKi4k+/9+mMKAcKAQL5TgAyId9/Aag/CDgEIA8cFjgDgXwnAHmQ778A1B8EHAKQBw4LnIFAvhOAPMj3X0B+1n9DflYbtQYBEAABEAABEAABEAABEAABEAABEAABEAABEAABEAABEAABEACB7CAAhV52PCeUEgRAAARAAARAAARAAARAAARAAARAAARAAARAAARAAARAAARAIE8JQKGXpw8e1QYBEAABEAABEAABEAABEAABEAABEAABEAABEAABEAABEAABEMgOAthDLzueE0oJAjlLAHvX5eyjRcVAICkCkAlJYUMkEMhJApAHOflYUSkQSIoA5EFS2BAJBHKSAORBTj5WVAoEkiIAeZAUNkTKcgJQ6GX5A0TxQSCbCby/+hPZXHyUHQRAIMUEIBNSDBTJgUAWE4A8yOKHh6KDQIoJQB6kGCiSA4EsJgB5kMUPD0UHgRQTgDxIMVAklzUE4HIzax4VCgoCIAACIAACIAACIAACIAACIAACIAACIAACIAACIAACIAACIJCPBKDQy8enjjqDAAiAAAiAAAiAAAiAAAiAAAiAAAiAAAiAAAiAAAiAAAiAAAhkDQEo9LLmUaGgIAACIAACIAACIAACIAACIAACIAACIAACIAACIAACIAACIAAC+UgACr18fOqoMwiAAAiAAAiAAAiAAAiAAAiAAAiAAAiAAAiAAAiAAAiAAAiAQNYQgEIvax4VCgoCIAACIAACIAACIAACIAACIAACIAACIAACIAACIAACIAACIJCPBKDQy8enjjqDAAiAAAiAAAiAAAiAAAiAAAiAAAiAAAiAAAiAAAiAAAiAAAhkDYG3+itphb9gCAUCeUdgKq9q/N5r3pJX9UVlQcAvgalFvyFzKxxkQm49T9QmdQTyUSZAHqTu94OUcosA5EFuPU/UBgRWQwDyYDX0EBcEcosA5EFuPU/UBgRWQyBReZCUhd6xY8dI/jyP8DC11tRQjfnrnfEMam70ctjW4bD5ik8QAIEsILCiLOA6BHsLqGC//uuZXqdKQSatE3hkm28EVpQJaIv59pNAffOYAORBHj98VB0EoghAHkQBwVcQyGMCkAd5/PBRdRCIIgB5EAUEX0HAJ4GkFHqS9uXLlz2z6N3ZR8WHxmhsTP/VjXRAWedJCzdAILsJxJMFNN1DzRe7aWLfEp2paKCu8SCth9oeMim7f2MofXYRiCcT0Baz61mitCCwWgKQB6sliPggkDsEIA9y51miJiCwWgKQB6sliPggkDsEIA9y51miJmtHwKfLTV2gRx89ok7C4dfU5+HDh9Xn7t27dQD+PzzcSiOlbXS8zL5E7azYs4+ZXqrpGLG/th0fo/qA/ZVI3Sc6NNZOZTRDvTUdNN92nPq3n6RWVhRSaSnNzs5yhDpqa5unvj45J1LpnJW0+U7dCI2oLOqsdHS5dlphScrXX0/ubFUi+A8EQMAXgViy4C1v/T164P7/GiN+F41Pd1Jn/RAt2XcnqWd/FXWp76Lw66RK0tcmNzZQ6CLRgcIQPfi2CVpqqeQGHKTGo0Fq2jVETYGV4w6qcDozyCQbOk5AIG0EYskEyQz9g7QhR8IgkLEEIA8y9tGgYCCw5gQgD9YcOTIEgYwlAHmQsY8GBQOBNScAebDmyJFhjhFIyELv8uVLbJl3yUZw7tw5+9zvSS8r8+os673jbaXUd3CYLXZWdslpp1+7ly3/DrE6b4RGSc6PEydDoyeN3Q9r8naIZaAO87hy4zlDQVbmlbJiUFkNQpln48QJCCRDIJYsiLmqprxTW+aFLLebA5Mqu8kBVuZtZWWdstybpKreoF2M0KZOvj5Ef/HH3UQL46zmI5p8rplCWztZmcfnPuJKOL8HZJJfUggHAt4EYskE79Cx76AtxuaCqyCQbQQgD7LtiaG8IJA+ApAH6WOLlEEg2whAHmTbE0N5QSB9BCAP0scWKecHgYQs9L785S8pKg8//DD9+te/pgMHDiRGiffOmadSqr1WRwtsKSaanaOztMV3OsVbZKb+rAqvz40izyRRRztc1oH6ahk1sdZvZ99OqmEjP7Hu0xaAJg4+QQAEEiGQiCwIiGVevVjJNlLhVA8Fw0eILnBuF6t4bz2Tq9jnFakv3eWV+iIrAwfHC6hnuIgqF4i6G+R6mE77iatTWPl/yKSVGSEECPggkIhMiJkc2mJMLLgIAtlIAPIgG58aygwC6SEAeZAerkgVBLKRAORBNj41lBkE0kMA8iA9XJFq/hBIyELPD5bA9loqne2jg8oyTsforanRe+gFtlAxzdrWdOHFeXahWRIz2UXR04UXWQGYmiNQ36+t89j9p1j3nUjAKDA1JUAqIJB/BESJV2BZ3wU2W4o6xlC0if+zLPTESm9Judxczqe6hN1vTjWza85uqi6X+wHfcU1qkEmGBD5BYH0JoC2uL3/kDgKZRADyIJOeBsoCAutLAPJgffkjdxDIJAKQB5n0NFAWEFhfApAH68sfuWc2gYQs9ExV9uzZY06Xfwbqqf848X53xhqOg9QdojG1UV6A2g/V8T535p5YytWrvfJOmJTKmtiF5k7q2zlCfbxfXqm5vqrPMA23cpqzViJRe/ytKmlEBoE8JhBXFjAXsc4b7BV3m82KUkPFGXabGSBqmaBu3kPPWOh1NyxRp1LYRcIM1HdS91SIJitaeI89fVT6jGunBJlko8AJCKSbQFyZgLaYbvxIHwQyigDkQUY9DhQGBNaVAOTBuuJH5iCQUQQgDzLqcaAwILBmBN5880264oorIvKDPIjAgS8g4JtAwRIfXqGnpqaooqLC6zaug0DeE8iXNpIv9cz7HzQAJE0g39pIvtU36R8GIuYtgXxqI/lU17z9QaPiqyKQT20kn+q6qh8FIuctgXxqI/lU17z9QaPiqyKQT21E6rpt2zbFK1qptyqIiAwCOUDg8uXL9LOf/SwhHVxSFno5wApVAAEQAAEQAAEQAAEQAAEQAAEQAAEQAAEQAAEQAAEQAAEQAAEQAIE1JXDp0qWk8oNCLylsiAQCIAACIAACIAACIAACIAACIAACIAACIAACIAACIAACIOCHgLjeNAes9QwJfOYjgYsXLyZdbSj0kkaHiCAAAiAAAiAAAiAAAiAAAiAAAiAAAiAAAiAAAiAAAiAAAl4ETp065XUL10EABBIkAIVegsAQHARAAARAAARAAARAAARAAARAAARAAARAAARAAARAAARAID6BioqK+AFwFwRAICECGxIKjcAgAAIgAAIgAAIgAAIgAAIgAAIgAAIgAAIgAAIgAAIgAAIgAAIgAAJrSgAKvTXFjcxAAARAAARAAARAAARAAARAAARAAARAAARAAARAAARAAARAAARAIDECaVPoBXsLqGC//uuZTqxQKQsdHqbWmhqqMX+9Mysm3cthW4fDK4ZDABAAAR8EwkFqtOSAkgcDkz4ipSPIJPX0Binplg1Zko6HgjTzkQBkQj4+ddQZBJYTmO7hcUIjBc2L2ZINyY8Z+D3P/Y3k4y8vop8rw62ucUZNL6000ggPt/K4ZOVwfvJGGBDIKQKp7B8o+SLzEI105JlG/uyhtI5ApOxqjBMmNQey6vFOpDwLDzemXrbN9DpzJH7mP1T4VsI0SU61usysjN1+nfnEtLbhqPwaV/Ejt+dAB0ZSJAviPyJHNmiZsZqyq5wUC0deTg64+mnxi+L7LvpNvlEhIAiAAAjEJZCUQu/YsWMkf54HvwiaL3bTxL4lOlPRQF3jq5hI98xk5Ru9O/uo+NAYjY3pv7qRDijrVsaGECDgm0B8WcAdy6PNVNmwREssC5b2TVD3QhWtuqPpu3ROwMmBKupyviZ8BlmSMDJEyFMCkAl5+uBRbRCIQSC+PIgRIcsuzfTWUF/xIXuccahuhDpah5NfPJRl9UdxQSARAvHlQWrHDOFXWX23cZDO7Bui+z41xGOQTqpMpLAJhg0GmylkxWlq5zFPSwpzY2XhfVMm9QQL5hVcFip2zFPbcWue5HgbUd9O8rH22StFXAeBhAjElweSVAMN7jJzCEs0uLGLelahaPMsnCjjQ5NOXrsGiaYKk1SgT9Lpi0TdMvfRUkcplwXRlYiQDZXUyfMtQ/WB6FDJf+c53aqF5KPHiol+UywquAYCIAACyRF4a3LRiC5fvrxC1C4an+6kznruRNshZeWImVgXhZ90rvW1yY0NFOIX4IHCED34tgndEZYX7NEgNe0aoqbAynEHVTidmayAHSlto+NldubUzoo9+5BVZh0j9lfp0Ea8/9R9okNj7VTG6217azpovu049W8/Sa2sKKTSUpqdneX4ddTWNk99fXJOqmNcf1bS5js8sB9RWdRZ6RBJuXZaYUnK119PKXztqjLgPxBYSwJesiA83ENdMpguN6XRHU3zjWQFWMio2aTTzu2cpM038yBc5IEMXrtpsGKSmtVA1gpjyQLa2k1dCzq+dJw7y7WMIHVONDlQQFUXOP/q01ZntJkKe4nOtBfRwApyCLLEfko4AYGECUAmoH+R8I8GEXKWgJc8iF9hsXIp5MWBVijuSyy1N3EfupEK53iaj/sHoa0yViBnXMF9gm4V3N0XsMYOKiyPOKRfQBP8r8o1SWWNR1SfZJIaNnLaxH2H9moat8tg+h+uUvOE+OMjpdzvdwYaZe08OW6CyIQ5jxf06IDHBLzAsN0JyqHCNNy6k0ZreWzBAxA9Pijm8cIOOiFjDnucwWOLtjoeZ+gxi07HiltcRzLQkDxKZYwiA5mI8Y0z/jDFwicIrCcBL3mQ1JjBazxAPVSoxg0h1e+fKQlS2VSlnndwjT261TiC1PUiJVuauN03UUDNP+gFiS2vRsmc8nHX2EVP3EsYJasuVlHBwDANXqin5k3WXIYrP62gkDkNUpY7wU0ssXgcI6OdhoozHhPxLAstZWEoVMAhebzD9bPHT5ZsU7JxitMR+SVyc+sgl6NZl8uSn+7nPhNk2VR3iPq5LOoI1FP/WL0dRCbd7WkSnq8Y4/kK96Hk1WitnsewZJ0som5alHkOmSaZ5XkSjlHXRm3zfaSmPqx0dNxinkHheRIJ40pfLHecaRJLprkzxnlOEfCSB8srqRVl+nrs/gGP/J3+AAfUcwMy98Zt2FKIx2pnk8+xMp7b0ZDdFppoaF+TXQTVbzBKLdOWVLvmPLZ28VyEBJV+RAud7rXmOVVbPUNF49yPsWSBU44GjkfUdUHkjZ6TWDZ3YfU/gqzUlPmQ7gYrLWnbcsj8ioSJkA0TRKEqmrRkif9yey12YJ7WPE3z0UaiXUdYcJl+mdMn0vMtDbpfxkVrqBikyqlmvZDakk+qzPIf+k02CpyAAAiAQCoIJGSh9+ijR0j+FhcX6Y033qDDhw+rv2UFKe/Ulnn8MnO72VNWMiLYleXeJFWxCzxzhDZ18vUh+os/ls7tOL+S+bWsXrCdquPrJ650kP0evdxLlUGxWO8dbyulvoOyonbGb3Si2r0c95DqjI6SnB8nToZGT4atNHjgvUPS12EeVyuKZijIvVQZdCurQSjz/PNGyIwiEEsWPPLo3yZQRt1JVCvYlDwgag468oBKjmiLPu4OBknOz/DKvBAF7fbFHWGqtmQJWwGHHNcQywrB8miCO86689tEp8VabwU5BFmyjCIugEBcApAJDh70LxwWOMtPAiIPZIwg44Xz58+r89h9hBA1H7XGCryYJ2TjCuiV7WLd38DjgotBxzUnh2mSVftsAaPGBjKxJeF48ZBe4lNJ1TJZNs0jielxfU2NKyZpnCfeussrqbKFw0scXonPPQhegGgyDlFlNV9v58m84fuoWRR7qgyVXM44/QwT3fU5fLBPVvnp/v4hnrruSMzN5mzxPfbYom9uh0qHk6GRE85YZXa+hPZa45jZviCPYljR9ziPP3iiXnsnkUWJOEBgfQnE6h+IfPB/xB8zmPGA9PWVVyBrHsL0+6+xM9LpyKS+tP9qS2LYt71OLjoyhzht7XVExiVazgTqj6hzUpPXFa5UYpc7bNnwhi4U0REuh3gzCk0NqLkPV2TrlGVhk8gpo6Bwp8lluBDp+aSpieWXyMwFHlPJuci4KPm5PI+oK7wooGNEFgPIPAbPb1Bfwh6OavdyXCWwRomFFI2xBWDp7KjjrnN2nkrs633aMpDz7ZuVRRKS75heoBBVNHzNfgJJ9Q9kIS6/64+o1fex+wdqUYBSrPHvnttVJ/cJSFmwkWV9N8GKpgQt71hxV7UgyjpJk9sb9wocT0Pc4yiX6+yBiGVJzzA3uXY5N23V9axUOUQxJ+GPUNGFkOum92mIlzpLH6SzfHmdx8PRssGVTkLlDrsiuk95IbbIEpY+stC5+mScPtFFvWhby7LTVC28lBzSc7ruVL3Puf+CfpM3HtwBARAAgRgEElLoXb58iS3zLtnJnDt3zj6PPgmIZR4LcxHstNDDA/Ewnb7AoRZ49RrvcaFWylw8bXdeZYCtDu4oa5P6oD3wllWsvuJGF8LrO68OmadSKrlWBwhsKSaanaOzXuFjXC/e4mgP3edO0DrasWwUXUZNrPWbZZcWel+/xAb3Tto4A4H1JRBLFvhfZcdlD0vbb6AiqxkFNnP7d8mDys1O+3Kfu2ttZIaK674R9xyyJC4e3ASBJAlAJljg0L9I8heEaLlEQOTBb37zv1WVNmzYQDJeiN1HkIkimeDiP6VccyjIana1KNC25Df3mqja6SIQbSrSni7Kq9VEmoSqLJcJ7XEKits9ZbnHSrsBUe51U7VM8vFkl0o7QokoMa37fHb6HE+4XWTLftkHWJVhkk57zXtJ1KhjbpbIHh9cW8KjjnlaTCB+qRmkcLruc3c2pbXbdd3tiwGqv0e0fh323ljp8FBmZ4cTEPBBIFb/wEc0J8gKYwYzHnAixD8z4wolJ+IH1Xc3umUOK9TU3uDGUiVOAh7lPm1FaSipjmq/cdIyt1SarEhUi6Z1GULnTIqV9riKpaDr3ET29xlenBehYwUOkJ4mSWiWhJxpkmLXuSv/0lra7pbjcqusiRdHz7LnT2tfUvj/dAHLndNY/YPf/cdvY1TQ1T/gPsLEJn4fD/A7nY9Y/YNAfSe/wbuoSrXPAq144/YiNvd64ZC2npt81f+LWLvuLVJ5ErfWok1sBGe3N6e/YAVY4cPMewSouqRhhbD6tltGxKqzVyKpLbfOJW6faGMRFZnCuM/NNV+fAUK/yRcoBAIBEAABm0BCCr0vf/lLJH9vf/vbVQIHDhyg3bt324mZE/XCsazv3JPt8hJUq9dk4K7+Ypt4y0supEy1zYtSv0D9xDVlCGyv5ZVgfXTQNZLtNRs+B7ZQMTuoMdZ0kR1Xk4L+VIPv8CIPw1NzBOr7rVWzY8q6z7XQNjUZIBUQWAMCsWTBHpYN7iOwvYlXhTbTfXYb1INgtbItUMRDTcfiLrLj6U7F+1ytvufbKq4rmOmoq0UAruvm1K8cMuEhSwwJfIKANwHIhBq9gh39C+8fCe7kDQE/8iAuDFa4FSoXedYq73iBL5zWd401nnxTyr0u5a67mxcKKos9cdG9tZoqxZ2e2S8nSomoE9L/F13FE27G+k+NWbSrPDsMu6irlcln9vBhDnFTV6P20AtTSanLmu7sHI86Yk9sz87pifKzMpOViqOs3R5nRHoOSUXiSAMEEicQSx5Ezx+ke8zgLrUZJ0xOs0xwH7ywUB1KCeC+Yc7F1Z92aac9h5jrHp8pGOssS1mlqS2A9FwKy0i2Vk70KNuhFf+2zowXI7XyPIl81wudR+0FCFq/Z62CdmfEi6HVoeSb+0by5/X92jpPW/edSMR3UvKZIuaaEvAjDzwLxO/7sGf/QFuJGYOC0Nw4hbm9sDNIZ+EQv8uj95jTC4CqnD3zpI/ASsGeaW4LasFx0F7MI3MLDVcVeRYv/o2Qnc74XKSFnpFJXnMXsgjJd5+IC5Hacutardgnil95fRf9Jj+Uhx7nygAAPGFJREFUEAYEQAAEfBNIeg+9eDmIdd5gr7jQaVbBxLVFU4CXYbWwGTqbzBfs17GNb+votNQKG/Z1PVnRwpP++qj0GddOS3zBHyfev4Kt4fqsq+KCxjLVb2c3EDUd5p64lahXe+WdMAmoVWI7eZXYCPXxPhY8Lk/Bofe8ML7h1R56ZSlIFkmAQCYSCLAP+l3Ee+IVUgHv66AOcUdjtUFx41AQMvfEnUWTmmjzW5Vu4n0sWJ7I0d0wpGRFEVsEd7E7jYIp7r5vdFJSndAF2UNPfM77k0N2bMgSGwVOQGBVBCATND70L1b1M0LkPCAgCjneC6Zqf5faU5eX+dkTYe7aO2MDHm/Ye+hJiEqlxKMFvSJeT9ixfZ54AwkUUdPGZrViv1lN9RGpybTN7pQ5mDWWKXSNZaInAmXymWfB2RrOHmio8QSPeKh+bxuN7mRLOfaAKYe4kZMuv9s2QKzp+jp0mFIea6TiiNj7ipcOHuqX0uAAgQwnkEz/gH19jCdULe1Czow9ZA89c+i5hyq2yDUyx9xxPsNsoSOLjpvVOIMn9nm/bxIFA8sbtVhQvBDJHnp2lMj8xAJYjXXE85AdxscJyyyZDxGrPLWHnho/FfB3iStpdjrWMXLJzyGK/0PEcyE1vJOdPmRLEL3PZzsdquM99NhSTkk2M38y4yQcqL+H6vo6aKcIuFTNk4RPRuw7KuXBNInDPP/OtGUdv92tQxRzvMcl750Zs38Qdu0tyTFkbkCmH49UBKmQXXurdGSRDrvUjngrihtdDl/A7Uu3KW7bPHepXHbyjpUT07z3rolv5jFY2ZfQwfJNlUPlIXvoieyQFCqpxWPuIiJ9rz5RuVs2TDhRuE6pKbcoRHlxFO+hN8h76A3OFbKM1E8k1n6ETgG8z9Bv8maDOyAAAiCQKIGCJT68Ik1NTVFFhdsXvFdIXAeB/CSQL20ks+opln5V3Nu2/OPn508Ptc4wApnVRtIPJ7PqC5mQ/ieOHBIlkFltJNHSJxY+n+qaGBmEBgFNIJ/aSCbXNcgLjps38eLClkrltk9bvcT2GITfLgiki0Amt5FU11nqum3bNrriiitSnXQWpafHKZOsKJSFQZMDrCS8EEO5mEU1QlFTRyCf5EHqqCElEAABIZAWCz2gBQEQAAEQAAEQAAEQAAEQAAEQAAEQAIFMINBU3U3NbP3reAvSHj4yoWwoAwjkMoE333wzj5V6bks8ecqWtWEuP3DUzReB2PtL+4qKQCAAAiAAhR5+AyAAAtlGQPvIz7ZSo7wgAALpIgCZkC6ySBcEQAAEQAAEcoaAuNfjPxwgAAIgsJYExI33Uv1a5oi8Mp3ApUuXMr2IKB8IgECGE4CFXoY/IBQPBEAABEAABEAABEAABEAABEAABEAABEAABLKRgFjpmSO/XXAaCvjMRwK//vWvVbU3bNiQj9VHnUEABFJIAAq9FMJEUiAAAiAAAiAAAiAAAiAAAiAAAiAAAiAAAiCQ7wROnTqV7whQfxAAARAAARBIOQEo9FKOFAmCAAiAAAiAAAiAAAiAAAiAAAiAAAiAAAiAQH4SqKioyM+Ko9YgAAIgAAIgkGYCsPNNM2AkDwIgAAIgAAIgAAIgAAIgAAIgAAIgAAIgAAIgAAIgAAIgAAIgAAKrIQCF3mroIS4IgAAIgAAIgAAIgAAIgAAIgAAIgAAIgAAIgAAIgAAIgAAIgAAIpJlAUgq9Y8eOkfx5HuEgNe4voALzNzDpGTS9NyappzdI4WQzCQ9Ta00N1Zi/3pkVU+rlsK3DSee4YvoIAAKZRCCuLJjuYRnQSEHTHCy50DOdbA24PbNMST5+cvkOt7pkQE0vrSQFwsOtLDNWDpdcaRALBDKbAGTC8ucDmbCcCa7kB4G48kAQpHK8oPocMvZopCPPNPJnD6V19CFlV+ObMAV7Od9Vj3Ui+zjh4cbU93dmep0xjZ/xigrfShjW5Ed7TXct48oDu/265g/S2Yaj8mtcxY9ctX+Z8xgYSZEsiP8kHNmgZcZqyq5yUiwceTk54Bq7xS+K77sYS/lGhYAgAAIgAAIgAAIg4ItAUgo9Sfny5cseGXDn8mgzVTYs0dI++Zug7oUqWnVn0yO3eJcnB6qoK16AFe717uyj4kNjNDam/+pGOqCsW4EZbucfAW9ZkP0sZnprqK/4kC0DDtWNUEfrcPKLBLIfCWoAAisSgExYERECgEDeEPCWB6kdL4RfZfXdxkE6s2+I7vvUEI8/OqkyjZSDwWYKWek3tfN4pyWFubGy8L4pk3qKKiGLFDvmqe24Na453kbUt5N8rFVMUQGQDAjEmz8QOg00uMvMHyzR4MYu6lmFos2TtyjjQ5NOXrsGiaYKk1SgT9Lpi0TdMu/RUkcplwXRlYiQDZXUyXMtQ/WB6FDJf2flXtVC8tFjxcRYKhYVXAMBEAABEAABEACB1RF4ayLRH330iAoeDr+mPg8fPqw+d+/ebScTHu6hLhlQl5tLurNpvpGsAgsZNZt03IeoibhjzUpA2thAoYsygO2mwYpJalaDWStMQFahVRFt7aauBR1fOs+d5dZ1dU40OVBAVRc4/+rTVoe0mQp7ic60F9EAx7di0oQa6Ou4kypf0mWx+sSyon6ktI2Ol9klp3ZW7NmHrFrtGLG/ygA5oj+t7hMdGmunMrbp6a3poPm249S//SS1sqKQSktpdnaW49dRW9s89fXJOamBdv1ZSZvvsPJgRGVRZ6XDi5m5XDutsCTl668nq8gqPv4DgbUgEEsWvOWtv0cP3P9ffWYvK9oLqZkHwepgmbHU3sS/70YqnOMhPcuB0NYJHhyTaveq3XLb71aB3W1en3epsJW6/dME/6tyDUi7dXtXsmeSGjZy2sQyor2axu0yGDmji6P+58mvx0dKuU06QqCsnSfCTBCZHOO2rFsut1dW/rc7QTlUmIZbd9JoLbd7Fg667RZzW95BJ0Qe2DKA231bHcsALU90Olbc4joSISB5lIr8ECETIXsc2WCKhU8QWA8CkAlMHTJhPX56yDMDCfiRB0mNF7zGAtRDhWrMEFJ9/pmSIJVNVbre/VbvX40hSF0vUv2NJu4LNFFAJvitxYgtr0b1Q8rHXeMWPXEvYVT/5WIVW+UM0+CFemreJH2WSoo5zuFXt1jxBDdxL4bHMDLSaag44zERz/0jS1kYChVwSB7rcP3ssZPV31H9pSlOR/o00pfaOsjlaNblsvpU7p/GTJD7K3WHqJ/Loo5APfWP1dtBZNLdHtbw+GKMxxfuQ/VhRmv1uMOSdbLosWlRxiUyrJnlcQ3HqGujtvk+UkMVKx0dt5hHPDyukTCu9MVyxxnWWP0cd8Y4z3oCseSBVMo9f7C8klpRpq/HHjPwqN8ZI3BAPS8gr2Juw5ZCPFY7m3yOlfHcjobsttBEQ/ua7CKouQSj1DJtSY0hOI+tXTwPIUFlbNFCp3utuQXVVs9Q0TiPbSxZ4JSjgeMRdV0QeaPnIyh63sIakwRZqSlzId0NVlrStuWQuRUJEyEbJohCVTRpyRL/5fZa7MA8rTma5qONRLuOsOAyYzVnnKTnWhr0WI2L1lAxSJVTzXqOxZJPqszyH8ZSNgqcgAAIgAAIgAAIgEAqCSRkoXf58iW2zLtk53/u3Dn73N+J7iiqVWy8ouxMBVFzMOhELTmiLfq4SxgkOT/Dq/NCFDxpfPZxZ5iq+brEbaCukOMewknEOivvpAnuPOsOcBOdFms96WSquJNUxa44zRHa1MnXWbFoOvbmRpzPXh71ysS7WO8dbyulvoNitTMTJ0bUrdq9HPeQGtyOkpwfJ06GRu268uT+Dklfh3lcrVCcoSCPemViX1kNQpkXBRVf14pALFkQexV+iJqPWu5zeLIsZBcwoFexcntcauAJrotBxzUnh2mSFbo8MaasbGUQK+F4kYCekqukahkYT0/yxNm4vrYwzsP6SRrnQXZ3eSVVtnB4icOrbllS0Pi0yThEldV8nSfwaPg+ahbFnipDJZczjjwx0V2fwwf7RAOv2+IhnqbqSMzN5mzxPXa775vbodLhZGjkhCNHZudLaK8lY2b7gixhWNH3OMsGnpTTlsOyYAAHCKw/AcgEFimQCev/Q0QJMoKAf3ngVdzY4wUzGjBjAennd42za33u88u4wPT5r7GT1enIpL70CaqtXoR92+vkotMPIU5b9SfUmET3PQL1R3h8wpHV5DUPZuzDq9y65KELRXSEyyFlDU0NcK8l1sH9oybpuxgFhTtNHhddiPR60tTEfRrpRy0EudBWvyeqTxUrl4hrvFCoY0QWCMm4g8cj1JewR5LavRxXdWJGiTsuNMYWgKWzo467ztl5KrGv92nLQM63b1YWTkm+Y3rRUkTB8CUXCMSSB7Hr5RozyCJc7v8fUatlY48Z1KIApVjj3z23q04eJ4gb3/tY0a0t/SZY0ZSg5R0r7qoWRFknaXJ745GC42WIRyHlcp29D7Es6RnmJtcu56atumplWdLpOY8jVHQh5LrpfRriZc4yLuksX17n8XC0bHClk1C5tTxyxbZOeRG2yBKWPrLguvpknHHSRb1gW8uy01QtvJQckvGY/wP9Jv+sEBIEQAAEQAAEQAAE3AQSUuh9+ctfIvl7+9vfrtI4cODACqvr3Fnxefg0d/IaqMhSnAU2V/JEvlzTR+VmR6PmPnenIpP1cqi47htxz8N0+gIHWOCVtOzjXq3ac+Vr0oybhPsmrzabp1IquVZfDGwpJpqdo7PuMCucF29x6uo+d6LV0Y4y55s+K6Mm1vrNsoscva9fYgqE6NTwHQSSJRBLFuxh2bD8kEGhHmhr5ZoTQlauqn02bYtdc6+Jqp3mQbSpSFuhllerQbOEqiyXyatxCoqLLWW5x0q7AVHudVO1DOh5YKvSjlAiSkzrPp+dPseD64tswSv7Xqgy8GpgrzGuRI065maJ7LZ7bQlLhHlaTCB+qREgnK773J1Nae12XXf7YoDq7xGtX4e9D046vBHZ2eEEBHwSgEwggkzw+WNBsJwn4F8eeKDwGC+ctoIn2m83YwrVd/DIMuLyRnc/hBVq0k/YbyxVIkJGflmh3A0l1VHv9MjoMb+pNFmRyBZApgyhc6etoJX2mIp7Rq7zmCl5XgwvzktHxLofID2sSWhUQ86wpth17sqytJa2u/t2cqusiRczzrLnT2uvYvj/dAHLndNY8iC2dZ5rzMAKoolN3Ecf0LMEscYMgfpO7tV3UZVqnwVa8cbtRfxw6MWE2npu8lX/nXPturfIgh+gok1sBGe3N2cM4e/pmDmPAFWXNPiK4pYRserslUhqy61ziTtO2lhERaYw7nNzzecn+k0+QSEYCIAACIAACIAACEQRSEihFxU35tfA9iZ2wdBM99mzzHogrFa3BYp4uOlY3EV2PmMmt+yissrhqyqu667prCvFneu6OZUOuVpJq1bciYLBy92EjhHYXssrS/vooF0PYreZNXrFamALFbMTPGNNFzkQNjnqTzXBH17kqf7UHIH6fssyZ0xZ97mMeVKTAVIBgbUgwAq3QuUOy1rRGS/PC6f1XWONJ9+Ucq9LueXt5tXzymJPXPFuraZKcZ1l9sZQFno6evT/RVfx4NpY/ym5EGWly+6oamWiia1vzSEuqWrUHnphKil1WdOdnWOJEHsSa3ZOT4qdlVFrKo6ydlsGRFr1piJxpAEC60QAMiF58JAJybNDzHUjkO7xgrtiZowwOc39BPfBi/vUoZQA7hvmXFz9aZd22muIue7xmYJxzrKUVZraAkhbCnK/SVx7JniU7dCLgWydmbjN5HGNfNcLE0ftRUlav2etWnTnw4sX1aH6PO4byZ/X92vrPG3ddyIRXyfJZ4qY2UOAxwBhz/6BthKTdqEsxebGKczthZ1BOosJ+V70HnN6UWCVs2eejBtYKdgzbS0Yvhi0F/jJvELDVUVJ8grZ6YzPRVroGZnkNW8hCxN9j5O4dHqRdKrKrau74jjJDxWMpZZR+t3vfrfsGi6AAAiAAAiAAAiAQKIEEtpDzyS+Z88ec7r8M8B+6HcR70VRSAXs8kId4pLGcpkhrhwKQuaeuLRoUhPwyxOKfaWbeC8LdsMhR3fDECsIiYrE/Sa71CiY4i78RnVL/ac6oguyh574nWeXGByvYL++b/zsO6GjzmRviePEe2SxNVyfdU/c3Fn1aGe3MjUd5p64qalXe+WdMMmoVac7edXpCPXxXlk895+CQ++rZfaaUHvolaUgWSQBAkkSiCsL4qUpCjne96Fqfxcr1WTo7Qx63dEqW0y7bbYs8czdSqXEowW9+lUPztk+Tyx4eTDftLFZrc5tVsN6IjVw3mzi6s9A/RAN8p42hfs5bT5i7bMhE00848XWcLYQUG09wOHr97bR6E62lGMPmHKIyyhpju51wGJN19ehw5SyHEjFEbHPDav1D/VLaXCAQGYQgEyATMiMXyJKkQkE4sqDZMYL7NNjPKGKaRdyZtzRzRb95lDWPVNV3Acw/RBzx/kMsz2dWNY0qzEG9xO4v0KiYBBrOFkoKJ4/ZA89O0pkfuIVQI1zOMZpO4yPE+7HyPhGrPLUHnpq7FTA3yWupNnpWMfIJT+HKP4PEY9dangnO32IC/92NY5op0N1vIceW8qp3o4Z78w4CQfq76G6vg7aKZ2eVI1rwnpf8VlXeTCscZhn89mbb75JV1xxRUQV4soDFVJb1uleuVwQxRzvccl7Z8YcM4Rde0tyaJkXCHCX+EhFkArZ3b9KRxbuyT6ZKn3rP3Gjy6cF3L50m9JjAOWyk3esnJguoCoT38xhsLIvoYPlmyqHykP20BPZISlUUovHvEVE+l7jpHK3bJhwonCdUlPuIqbOCyZ5D71B3kNvcK4w7jjJKYD3GcZSkWx++9vfRl7ANxAAARAAARAAARBIgkDBEh9e8aampqiiwr03hFfItbguln5V3OO2fOSvRZbIAwRWIJBZbWSFwq7idr7UcxWIEDXPCeRbG8m3+ub5zxvVT4JAPrWRTK5rkBfuNG/ihYUtlSQu7LTVS3wvHUk8bkQBgbgEMrmNxC14Ejelrtu2bVMxo5V6SSSXpVH0vMUk798pFoKTA6wkvBBDuZiltUOxkycge87/7Gc/y6A5tuTrgpggAAIgAAIgAALrRyApC731Ky5yBgEQAAEQAAEQAAEQAAEQAIGVCTRVd1MzewRwPHRo7x4rx0QIEAABEEiWgNsST9KwrA2TTQ7xcoLApUuXcqIeqAQIgAAIgAAIgMD6E8gihZ72k7/+yFACEAABEAABEAABEAABEACBjCcg7vX4DwcIgMDaExDXm+bIN2s9ce2/VG9qj898JvDrX/9aVX/Dhg35jAF1BwEQAAEQAAEQSCGBLFLopbDWSAoEQAAEQAAEQAAEQAAEQAAEQAAEQCClBE6dOpXS9JAYCIAACIAACIAACIAACICAQwAKPYcFzkAABEAABEAABEAABEAABEAABEAABJIgUFFRkUQsRAEBEAABEAABEAABEAABEPBLAHb/fkkhHAiAAAiAAAiAAAiAAAiAAAiAAAiAAAiAAAiAAAiAAAiAAAiAAAisAwEo9NYBOrIEARAAARAAARAAARAAARAAARAAARAAARAAARAAARAAARAAARAAAb8EUq/Qm+6hgv2NFAxbRQgHqXF/AfVM+y1SdLhJ6llV/Oj0/H0fbq2hmhrz10szK0QLD7dy+JXDrZAMboNAbhGw2n8Bt2H1NzCZfP2UbJF0GunIM4382UOrSG3lckjZVXnDFOzlfFdTdpVbpCwLDzeuQi56FH+m1yW3aqh12AjieOFbaaVgHrFxGQQSJwCZ4GIGmeCCgdN8I2C/063+geonpPG9HpVf4ypefKpPIOUdGElR/yD+w3f6C1pmrKbsKifFwmE9OeAat8Uviu+7GEf5RoWAIAACIAACIAACIAACIAACIJAQgaT20Dt27JjK5HOf+1xCmWVL4JneGuorPkRj/WWqyPK9o7WEjvfXUyBbKoFygsAaEIgvC3ji6WgzVTYs0VC5FEYmoqqocfgMDdUn3pLCr7L6buMgnWlvUu3wvjTXLxhsptCmCZVLU/sSNaUyP1Zq3DcVosrNKUw0PEytHfPUdnyMFF75vnMn9W4Zo3YtylKYGZICgdgEIBNic1nxKmTCiogQIPsIxJcHUp8GGtw1RE1Wl0AUZT3DLUn1EeLSkYUEoUnOi9/lkpd8P1pIPZuXqFP1T+LGjro5SacvEnVz30bHTXH/ICo3KavTX6ikzn1L0SFW952Ve1ULRIOrSyUiNsZRETjwBQRAAARAAARAAARAAARAAARSSiAphZ6U4PLly0kURCxdCqmZB8Lq4Mn5JZ6cl5WnhXM8rL8YotDWCVpqITXx3yWBtnZTtwqslQGkBtD6vEuFraTJgQKqogn+V6UGpSo4x5rY10mVsgqVB/ENGzltHq6eaa+mcbsMkRMJKh5Pgj8+UsqT4s4MeFn7GI3pRHkSQCbJ+2jW+l53KHqyPEzDrTtptPY49fOsulju7ewrpkNjO+hETQfNl5bS7KyO3dZWR319IyolnY4Vt7iOaGRE5VHaptMhsbzp0GGJ6ji9dnJKaAqHTxBYewJesiA83ENdooCzJ8uiJqJU21StnAtt2qLVzrnddy3oe2rSjHqokBVgxK24sJdopiRIZVOVrjZuhVXxSF0vUnKlSSsA1eSdVi62vBolb8rHWUaYcuhJOgmj5NTFKl6BP0yDF+qpmZV7Sy2VRDHLTWqVfnATSysut5S0ocJLcclyUJSFUptQAf/Pk4JcP7sMllxTcnGK0xHZJTJz6yCXo1mXy5KdfNU+ZoIsl+oOUb9MVsoRqKf+sXp9zv+rhQlGhJS28YIF554EUrJqtFYvXLDkXDHLt6ZFkWFEpaWzLLs4YF0btc33UZ+cW+nouMUsmUZoxHVd0pVV+iqsCm7JM7mBI2cJQCZoBYUoJyATIBNytqH7rJiXPFgeXSvK9PXY4wWzMMi8sY1STb8v5a0a+907+Ry/c/ndOmS/H5toaF+Tzor/V+MIVmqpw7xf1bue+wRbu7g/IndkXNFCp3urSOWv3t9nqGicxzVW/8ApRwPHI+q6IH2QIhrgxUx6/GLldcEZjwS5/xPi8U93g5WWvO/lkP6TjFki+gu8yChURZNW/8J/uXk8pFON+p/7XFb/p/loI9GuI9yZMeM00y8zZW7Q4zROoaFikCqnmjUHq89iJ4xxlI0CJyAAAiAAAiAAAiAAAiAAAiCQDgIJudx89NEjJH+Li4v0xhtv0OHDh9Xf8oKFqPmo5UKHLXT0EFtCBUgsXZZ4delSA098Xww6rjn5bhOvnJUJ88kBHizLQFbCsTJAD9wrqVoGx9NspTM9rq8tjLPNzySN80C7u7ySKlustHcN8vC4i8anTcnYEqaa77HykIbvo2ZR7KkyVHI5HZczJnS8z+GDfcTaPhobYyXfIZ6+7kjMzeZs8T0c9zi1lRL1ze1Q6XAyNHJixs52dr6E9nL6xznQbF+Q3X2you9xnonnyXqVL5R5NiucrA8B/7LAq3x6Ekkm40QenKkgag4G7cBdVK2uT0ibHw9SuLyTwzTYFnrX2CF1OqI8k3SqLWlh345zYuQNcdpKJnH8wY1axgTqj6hzUhNVXDj7iF3uMLdROUIXiuiIqg9P0E0NsHSKdbAcbBIZpZWHneXuNM+w0k6sGHV6ErupiRmJvFwI8hc+F/kWJTtj5RJxjRcEdIzIQgCWWyJ/qG9ld5wRCRDV7tUyj0ZGiQUUjR1vo9LZUcdd5+w8ldjX+6hXRBrn2zcrCyQk3zG1yCEqWXzNEQKQCZGyDDKBf9iQCTnSuhOvhsgDGSPIeOH8+fPq/JFH/zZGQq7xAiu9pO9/RJmYxx4vqIVCSrGm25uykFMWbGxhJmOIfROsaGLLO7v/HyPL6EusuKtaEGWdxOd3MI8SnHcwj0DKdbq8zIitB/k13D6hFhoaZaKdnGVJp/s1R6joQsi+Fe8kxPb/MibpLF9e5/FwdH/BlVJC5Xb6FK4U+JQXWkn/wlpUVX0yzhjpol6UJX2x0NRpqhZeqm8iYzH/B8ZR/lkhJAiAAAiAAAiAAAiAAAiAAAjEIpCQQu/y5UtsmXfJTufcuXP2eeSJrOqUATD/KeWac1dWr6q9tFwWMfpuE1UHnHC0qUi7tyyvVgNnuVNZLpPa4xQU13vKco+VdgOi3Oumalb8KcsZ2dMiQokoMa37fHb6HA+wLzZToYRTZeAVwV7jXIkadczNEhVvsQp6bQmV0jwtJhC/tORaO0X3uX2RT0prt+u62xcDVH+PaP067P2xXPP9diicgMBaEfAvCzxKFD7NE0ANVGQ1pcDmSm6Xck0foqBP5KjcrBNSMsJXRLe8YYWa2runwLEe9krDo9ynrfANJdVRbdcrIdd1lSYrEnm1f8F+vTI+dM6kWGkzkok3w8sV29dpeHGeBUuJFTZAW4p5rn3urK+4OlAxGbHHEtB17kqitJa2W8/TvlrWxIsXZqlvp7UfqdLy2XdxkkMEIBP0wzSy7LT1bCETon7kkAlRQHLzq8iD3/zmf6vKbdiwgWS88Lv/+G2MyrrGCzxmmNjE/fMB3ROINV4I1Hdyj76Lqqx3tlK88TtUfHDohYTaem7yVf8dc+3Ou8gqW4CKNvHiHPsd7IwfYhQ+xiXTrwlQdUlDjPvLL7llRKw6L4+hr6S23DrNuGOkjUVUZArjPjfXfH5iHOUTFIKBAAiAAAiAAAiAAAiAAAiAgAeBhBR6X/7yl0j+3v72t6vkDhw4QLt37/ZIOsZlXk1aqNzkWas6YwSxL104rU+NNZ58U8q9Lmpm13vdbFWjLPbELd/WaqoUl3rW/hjRSkSdkP6/6CoeYBvrP1E47nP27lAh2E1drUxAH+RluNYhrupqWofZBidMJaUua7qzc+wWM/bktpksPysj11QcZe2Wdd6Ysu4bPel/siIV2SMNEHAT8CMLAtub2JKsme6ztc9acaYm4AJFrJ4KUdD6HUdOTLlz8nduJu8mp1keuA9WEqpDTfi5b5hzceul3VeplfkbzXWPzxSXW+Wi0tTWesZSULn29CiC1+WyHVrpb+vMxG1mTY2ylAsoDd6ovfhA6/ecxQV2mrPs+1gOJdv06Wr/r+/X1nli0cymyGxxjCMXCUAm6HfyamWZ+m1AJuRiE8mrOvmRB55AuP8f9hwvaCsxeVcqS7G5cQpze2FnkM5CQr4XvU+vXhBY5VjuyZiBlYJiyaeV8EF7cd/pC2yvdlWRZ/Hi3wjZ6YzPRVromX6KpB/z8KxzzNApLrfOY8UxUuyiRF7FOCqSB76BAAiAAAiAAAiAAAiAAAiAQIoJJL2HXlLlEIUc7/1Qtb+LlWoy/HYGvu70KlvYnQ273inY3+zaQ09CVColHi3oFbB6gM72eWLNwwP6po3NaoVusxraE6nB82Z3yhysfogGeV+bQkmbj1j7XMkENM+EszVcnxVZXNXVK8ub+r1tNLqTLeWsvajElVwZh3Kr18Sarq9DhynlPfNScUTsfyV76PVHm8KkIhekAQIpJBDgPWp2ETUeLaQC3gtOHeLC0nKnJW6eCkLmnri7auIWzi50raD+PrS7KJNON1vumkOt5J+q4rZu5I2543yGuVXLKvpmdtElZWxguUQymSjWcLxKnxZYDskeenaUyPzE+leXO0yn7TA+TlhesdRSVnlqDz3FooC/S1xJs9NZCe8jORVElP6HiPfarOGd7PQhe3C2i4CidjpUV0MdbCmnpJq475XnMGMF5I9A/T1U19dBO0W4sdxKieQKn4zYc1TKo4rjZIuzfCIAmeD9tCETvNngTg4T0JZ1ukcu1RTFXBMFApOxxwth136zHLq7YYjDEh2pCFIhu/pX6ciiPXaxH9FLFtfaHL6ALeH1e1b3/5XLTt7FdmKa9+I28U0/hZV9CR0s31Q5VB6yh570JySFSmphN5Vdqp/BY5+NHql6jZHK3f2FCScy1yk15S5i6rxYkvfQG+Q99AbnCuOOkZwCeJ9hHOXNBndAAARAAARAAARAAARAAARAYLUECpb48EpkamqKKirc+0d5hcR1EMhPAvnSRjK5nkFW0DdvYkVhSyWJuyptBdypFGb5+atErdeDQCa3kXTwyOT6Qiak44kjzUQJZHIbSbQuK4WXum7bto2uuOKKlYLm8H3xQqAt/sVCcHKAlYQXYigXc5gAqhabwJtvvkmnTp3CmDo2HlwFARAAARAAARAAARAAARBIkMDaWuglWDgEBwEQAIGVCDRVd1MzW/4W7NchZcW+WL/hAAEQyE8CkAn5+dxR6/UnIIqL/FXquS3x5FlY1obr/1hQAhAAARAAARAAARAAARAAARAAgRwiAIVeDj1MVAUE8pKAuNLiPxwgAAIgoAhAJuCHAAIgsA4ExK3/Uv06ZIwsM5bApUuXMrZsKBgIgAAIgAAIgAAIgAAIgEB2EoBCLzufG0oNAiAAAiAAAiAAAiAAAhlFQKz0zJG/1nqGAD7zmcDFixfzufqoOwiAAAiAAAiAAAiAAAiAQJoIQKGXJrBIFgRAAARAAARAAARAAATygYDsEYYDBEAABEAABEAABEAABEAABEAABEAgvQSg0EsvX6QOAiAAAiAAAiAAAiAAAjlLoKKiImfrhoqBAAiAAAiAAAiAAAiAAAiAAAiAQCYR2JBJhUFZQAAEQAAEQAAEQAAEQAAEQAAEQAAEQAAEQAAEQAAEQAAEQAAEQAAEIglAoRfJA99AAARAAARAAARAAARAAARAAARAAARAAARAAARAAARAAARAAARAIKMIJKXQO3bsGMmf5xEOUuP+AiowfwOTnkFXvDHdY6XTSEeeaeTzHlpFaitmR1J2Vd4wBXu5Dqspu8ptknqYQ8+0zjo83Gifr1wYnyFmeqmmpsb+ax0Ox4+owrfSSsHiJ4K7IEBKDnjKArvtumRBOttvVH6Nq/iBq7Yv8mtgJEVyIP6vxZELWl6spuwqJ8XCkZWTA40UXEEsxC/h8rvDrY7MqanppZnlQSKuhIdbWUatHC4iEr5kHYG4/YOoNqr7CM7vNOWVjcpvNe0KMmHlpwOZsDIjhAABEAABEAABEAABEAABEAABEAABEACB1RBIeg+9y5cve+TLE9JHm6myYYmGyiWITFBXUePwGRqqD3jE8b4cfpXVdxsH6Ux7E0ns+7yDpuROMNhMoU0TKq2m9iVqSkmqViKsLLxvKkSVm1OYaHiYWjvmqe34GCm88n3nTurdMkbtZSnMB0mBgAcBb1kgERpocNcQNVlNXybFe4ZbkpIFHtnry6KID01yXtxmJS/5frSQejYvUaeSQ3FjR92cpNMXibpZhum4KZYDUblJWR25UEmd+5aiQ6zuOys1qhaIBleXSkTsmd4a6is+RGP9WsjI947WEjreX6/kdERgfMk7ApAJq3zkkAmrBIjoIAACIAACIAACIAACIAACIAACIAACIJCbBBJS6D366BFFIRx+TX0ePnxYfe7evdumEx7uoS5RwNmT6FET1LJiPtRlhTeT/VrpR1u7qWtB31OT6dRDhawAIwpRYS/RTEmQyqYqaWJfJ1W60ulW8UhdL2ILuMK5Jq0AVJP6WrnY8qpcZ/XCxRCFtk7QUvm4qxx68l7CNPNEPl2sYsucYRq8UE/NrNxbaqkkcuXnVlKIgiK4qZuIyy0lbajwUlyyxZ8oC6U2oQL+n5UFXD+bhZSJ8xFLncIpTmcjl1PKsnWQy9Gsy8Vcl1ix6T5mgn00W3eI+kWJIUegnvrH6vU5/68m2kesr6VtPAHv3JOrYjWzc7RWT8QrZWAfFR8ao6ZFvt5HVFo6S7OzHLCujdrm+6hPzq10dNxiqqMRGnFdl3Rlpb4Kq4Ifp/4klLmSDo7MJOBHFiwvuVaU6etiAVuof9dywf5ta1lgJIRRqul2Ia0ndhubfI7bFrehIbsdNNHQviYVXv6bHChQSi11weSl2jS3/a1dLHfkTjfLkBY63VtFKn/VTs9Q0TiX05IDTjkaOB5R1wWRNUU0wIsWyFIAqrwuyCKEahrnOgZZqRliudPdYKUl7VoOkZMSJkIu8GKCUBVNWnLEf7lZJupUo/5nnpa8bT7aSLTrCFHQcDfy1+JzoUHLR06hoWKQKqeaNQdLNtkJs5x4fKSUFxE4KwbK2sdozASw5Mis9b2O5Unk4oIwy4edNFqr5YKSI33FdGhsB52o6aD50lKWOTp2W1sd9fVpAabTseIW1xGNjJCEKm2z5ItYHncYYVfH6bWTU0JTOHymiwBkAmQCZEK6WhfSBQEQAAEQAAEQAAEQAAEQAAEQAAEQAAFNICGXm5cvXyL5M8e5c+fMqc9PPbksk/RLbIVypoKoORi043ZRtbo+IRPl40EKl3dymAbbQu8aO6ROR5Rnkk61nna278Y7aWILHqWg47QlrvwNbuT8pidZF3ZEnZOawObC2UfscodJ+7ALXSiiI6o+PHE/NeDhEjRATU2DPLVvLH/caZ5hpZ1YMer0JNumJi5bgygKmY+c7+K4F4OJuc3jCe6OEZnY5sn2sePURn20ojtOu876pHYvxz0kk+ejRHJ+vI1KZ0cdd52z81RiX++j3hmOx/n2zcqEv+Q7BmVeFNNc+OpfFoSo+ahxucmKMlZiHVHKXW4PbAGr2qD8zq3ftloQoBRr+p6ykFPWKmxhJm133wQrmtjybjoBiqy4q1oQZZ3E57ZGza62xqq7cp0uLydg60Fubu0TXALTTl35WFYzWn4doaILIddN79MQ2/me4bw7y5fXeTwcLRdc6SRUbkd2uFLgU15QIXwtS8nqk/dx7VmRKCwaKvnZuNwdXtSLL0TmhqZOU7UKIzJo3EOmReZkvg0f7CNu/Krti+wY+f/bu3/Qtq4vgONHaTqEDs4QiAwJFdiDyBKDM9ibM4gMNsijPRgyBNLFtQc3tekQEih2wUPUQHFph0AGe7TAgV/wEG/WEEM6NLjggEIKUSBQmzhkaGl+59z7nv5FSqTkKZGq7yuqnp7uu/e+z5NuQMfn3rnmptnc7bvkx6ukSGbvvKvHDUH3bHDx2+6jfh2ONuX2jAb/Mms63acG+n7VYJ7+cYONOZsE80Kqj/bMmMCYUO/DxphQT4bjCCCAAAIIIIAAAggggAACCCCAQHMCTWXoXbnyjav9hx9+kJcvX8r169eba62Q1x+G08Xp9+KnhkT0h+OcJFw9iwP6uolt6FTclR4asB+dGzlxQkb8KVpYA2qaVeMycezU4285v06/88Ep6f4RN81cvZ/Ua9bs6vTZegthXOB5XlZOWOkhSVg/XYXl+zVrqnuw8OSRpq9cCN6Py+k+kd29ZyKn655S9UafnLZ+6CkiwX71RWr954p9DU4/OyEzySnJTGmWnh2yH9krU3SCgjx1qkDjY0EpC8yu1TLOem8lyrJRww+/hbotwXReFneGZfia/2a6jNdTec1s1f80MDjpSml46k/9IGqArJHNT9s7ERSNS0K/61n9romb+nZRRgYaqSUsk/bfTf3Gj/RrnzXr911bOD5YuVKGn73y12x7tbZo++1byD9Xb80W7L1WlJS8Uibs7Z5EMBJX7dt7TWx7uzpaXAruzcl+ScpdeaJtnGywjmR/qWT5fvnpyQvnqsbcuIxd0my+uTlJBUl6xWmIy09kv2UCjAmMCfU+XIwJ9WQ4jgACCCCAAAIIIIAAAggggAACCDQn0FSGXiNVx89NaCbZpHxVzDazwFnMZ8TEExqqysrafR8V8j9YJxqptmaZnP2or1vugf/xv1joIO93NWgWhguK77kdm+7PT2vnMnZ6Kt9941XE/Xb1uzp9FlCYKegyB99o/O0Hzp637Lk5nxlnRW26u1TKvY67CJ7/Md3ecvG9sh/L7ZjbdoOoxLM9N4VdePhDnsdu+uw8n913TzNo2BAIBPbzUtDss143fa5limlAvrj5LDH7TrhMsb0tKeh3RSeDDDL0LJtO1+esmsLVB/WHS5l7Nt2ujjuWyef+cOBgzQWurJn8vobSTiSKLTa3ky3Ws7VXObqE45HVX3Ore801S0fcb99G4oQGEW2qT8u+c4/S+oa1e1HjqE7re0Gn4s18r+mMwWZT+6amN/RvEArSn9QhKcymc2NK8McAYeHg2f1xge4/s1/7o9jOzgbZeZv6BwUid4N/Z6KomjpaLMCYUDUO1vaOdizzbTAm1LbmKAIIIIAAAggggAACCCCAAAIIINCOAk1l6IUX8O2334a7bz7Hde2qyyLjP/dKTNeCc5tNYRlMs2fTv8Wy4Xs2Dd6EBvlyshUUbezJTyMX1mNr6IVbmOHTaxk+PRYGeHMrBNk1kzp1n/UxreXEflC0zLjjWv5xsIZe8dTK9vxaW9bvguSLZRrYCYJ4C+Eaes4iJj5DzyzmSxkyDVTnitiP2Muia0eldCU7v9maUj4hblaWR1MyV54pZ/ehLLoWH7sko5k5mbK0Fl27Sn8H//CtcF+mp3Rtv6Am68/ZD6+VGj6xwKtXr+TYsWMVvXjrWOBK+ik3J4tnWWBuQuLxnCzqWnEuE899T4NAWaFsXUk9ZzG9rmVFVgbXpDfM0LOAlK4lqYdLm02hq69i+t0KM14tu89N2amrVW4/0DX0wvPD8UiDfU1tOra5frg2bL0sGzeshiG5qNNULrjxRMecnjq1DozUvuYB+0MHnfbXjQvbpZP1mqLptwVEF3R6zXG112mF93qLGXr11/wsdaPWngXs9S8HJJXKBG/b1L5j7p6MfTcjd6cqM+Xs++///MIXL8+mS+q4E8VWsV6oruy5fLPiExJFE9RRJcCYwJgQfiQYE0IJnhFAAAEEEEAAAQQQQAABBBBAAIHWCcRe61av+p2dHRkcLF9Lrl7Jj3987YZOv3dcA4UXNay2MR5k+8y7H8Y/fm9osVsF2vk7EuU9ses8c+aMq7I6qBdlO+1dl5+mN6eBQssQtOlDh/drBBfb+yLoXQsEDg8P5Y8//mjbfy9bcMnCmGCqjAmt+Gz9F+rsxjHhv3DfuAYEEEAAAQQQQAABBBBAAAEE2l3gvTL02uGiJkYWZVIzfGLXfG8sk8eyXNgQQACB1giUZ+JZC0G2YWsao9YOEXjx4kWH9JRuRi/AmBC9aefXyJjQ+feQK0AAAQQQQAABBBBAAAEEEECgXQU6NqAnNsWePtgQQODjCtg0e+HWbdl68bF1nT44vHqeu1ng5cuX7vKPHIl8KdqOY2VM6LhbRodbIMCY0AJUqkQAAQQQQAABBBBAAAEEEEAAgQqBzg3oVVwGLxBAoNUCDx8+bHUT1I8AAh0kwJjQQTeLriKAAAIIIIAAAggggAACCCCAAAIIdLwAAb2Ov4VcAAKtF2jXtTRbf+W0gAACtQQYE2qpcAwBBBBAAAEEEEAAAQQQQAABBBBAAIHWCTBXWOtsqRkBBBBAAAEEEEAAAQQQQAABBBBAAAEEEEAAAQQQQACBDxYgoPfBhFSAAAIIIIAAAggggAACCCCAAAIIIIAAAggggAACCCCAQOsEog/oPViS2LVY1WNJcq26hqr2xjcK793S2o2g37fuiNu/1bJeuz4WNsZl6YHt5mRJzT6k765CZ1Gyzt0al7X353BVVv9vYzolqVT4uCG/VReoel3YmNby7y5XdRovEUAAAQQQQAABBBBAAAEEEEAAAQQQQAABBBBAAAEEAoH3Cuj98ssvYo/6W1pWL7+W11f9Y7VnQZY+INBWt53Cmoxnc6W2Lq+K7PQGQbK6Z9V5Iyf5A5HFtPb54qhMzNrzUJ2yERzWvn+1kw0qGpJ5tVofi0dQcVCFBveGH0dXndX0242UZPqWZXNz0z2WR+/I3PSGRBwzjLbT1IYAAggggAACCCCAAAIIIIAAAggggAACCCCAAAIIdLjA0fft/+HhYYOn+kCZL1zQzLdemdTAmdt6VuX17ITuWobasCwEhy2oNj8gYhlsvUHQKz349I2AV+5/k5L9clvWwzhYfELWr1p9fsvdipWCWmFblsWmcbTFLxdkwQW8FmX76kXJ3wjaz8b05KeS2NJ+Ht92Qb1SP9J6nsjC/oQ8nU3ILe2zBH11be2v6vER2dJrXJO0ZA+yGiAM6iq7ZldmTfuuLWVde9u6Myy54Bob7/e8DAXXWvmknlmvOfnzuMjlFZG10N2CresyoWa+z2lJaz+tL+nBVRnamfT3QV0rApqFDfn1TlJmbp8tNnV2VgN74St9f3oqI7vB69HlTZktFdWjBdmYnpK7F27LTQ1cWubeVKZPljfPy73UnDxKJmV31589MzMqmcwdV5OvJzi3b1Tkzh3XRnLG16NRRknN+bIio1rfrFQ0G/aPZwQQQAABBBBAAAEEEEAAAQQQQAABBBBAAAEEEECgQwWaytD76acVsceTJ0/kr7/+kh9//NE93rz2rEz+HE67qYEyDaatuOyzuM98s8y99KLIwZqbErKwsaRBJAus+Yw+C+aJy2CTIPtuWwNNTWbeuQy1sM6nsiqTZVNaarBrwNra1lYte1C0X7bvM/Rc++FFBZl0LnPv6ook9i309e4tKxr00+uZH3jzmrcKemxiVUN+Ndprqt/1cuM04898tQUL3o3c/0qvXoONzn1I701pWk458NmBTwc1ALmTl5Hw3jzeamqa1I3vM6LRPp+9tzwqd+aam2Zzt++SnntbZpIimb3zQQagxu/u/VbE3n3UL99pduBtLbSbWdPpPjXQ96sG80bDrEGCeUUsdhBAAAEEEEAAAQQQQAABBBBAAAEEEEAAAQQQQOA/I9BUQO/w8IXYI9yeP38e7lY9V065uX18UnqD9egs282tsRdkkNmJ8bF5F1gbDtbec2vJFfKaNRYGBn32XO7PegGsqub1ZeHPnEhPIngjLonjmgT3PB+8XpQRCxo2vKUloRlt2lMZ6bcw3Lu3dP+IlvZbrWuuV0O0/fat5J9rEPJA74H5OnfNmgwp1SgRdqZ8PzzW4POeJtf1nQ6u+GS/JOWRPAnbaKCOZP/JYqny/eJB3UleOFc09cfjMnbJsvbmiuv6tWJm1/I+sI8AAggggAACCCCAAAIIIIAAAggggAACCCCAAAIIfGyBpgJ6V658I/b44osvXD+vX78uX3/9dWN93s9LQbPPeneGfCaeyyALT/VZYrbmnssU29uSQjyh+WWVgcHqNeaGBjQL7fFwac08W1NPg1ZLDzT0dmrIZQCGgav8vuarnUiEDTb5nC0GwLb2KjP0wiCj1V9zq3vNNUtH3G/fRuKEBiE1S9Jl6FkG3lU/5WbtHtQ5Gh+TC8ldyXyv6YzBZmvqpdwaegXpT5Zl0z3b02kx+ySM74Xl7Xl375l7+cwigFFsZ2d9VqBm7ll23937TUQRo2ifOhBAAAEEEEAAAQQQQAABBBBAAAEEEEAAAQQQQACBFgu89xp6b++Xz6ybLBaywNyExOM5WdS14oav6ZSXPRauCwJlBVvXTo8F22J6XcuKrAyuSa9O3enqsYCUrrcX5ID5kgPz8lr3YroO3UIQZ7O19vyUmfOy/UDX0AvPtzXhbNpPDfY1tem6fK4frg1bQ0+DYy54NyQXdZrKBZ0KNLaj19JTp9aBkdrXPJBw698thGvohafrNUXTbwuILuj0muNqvyKre72aoefvSK31CMPm3/Y8dlNXzJvWIF4qExSzNevG3D0Z+25G7k5pplywnN3M7U23ll15eM2y6TJzvkxS18yLYrOgYnEJPVtD72bFJySKJqgDAQQQQAABBBBAAAEEEEAAAQQQQAABBBBAAAEEEPikArHXutXrwc7Ojpw5c0aOHTtWr0gXHM/J0rVhyWmg0DIEc7c0SLhfI7jYBRJcYqXAq1ev5OHDhzI4OFj5Bq8QQAABBBBAAAEEEEAAAQQQQAABBBBAAAEEEEAAgQgFGsrQs8BF9wb1yjPxTD7INozwJlAVAggggAACCCCAAAIIIIAAAggggAACCCCAAAIIIIAAAvUE3hnQswS+f//9t975XXE8Prau03V2xaVykQ0KvHjxQj777LMGS1MMAQQQQAABBBBAAAEEEEAAAQQQQAABBBBAAAEEEHh/gXcG9I4cOeICegcHB3L06FH5/PPP3bMdZ0OgWwQsqP3PP//I33//7Z4tmMd3oFvuPteJAAIIIIAAAggggAACCCCAAAIIIIAAAggggMCnFXhnQO/333//tD2kdQQQQAABBBBAAAEEEEAAAQQQQAABBBBAAAEEEEAAAQS6WCCmU2q+7uLr59IRQAABBBBAAAEEEEAAAQQQQAABBBBAAAEEEEAAAQQQaGsB5s1s69tD5xBAAAEEEEAAAQQQQAABBBBAAAEEEEAAAQQQQAABBLpdgIBet38CuH4EEEAAAQQQQAABBBBAAAEEEEAAAQQQQAABBBBAAIG2FiCg19a3h84hgAACCCCAAAIIIIAAAggggAACCCCAAAIIIIAAAgh0uwABvW7/BHD9CCCAAAIIIIAAAggggAACCCCAAAIIIIAAAggggAACbS1AQK+tbw+dQwABBBBAAAEEEEAAAQQQQAABBBBAAAEEEEAAAQQQ6HYBAnrd/gng+hFAAAEEEEAAAQQQQAABBBBAAAEEEEAAAQQQQAABBNpagIBeW98eOocAAggggAACCCCAAAIIIIAAAggggAACCCCAAAIIINDtAv8HYX2V8V6kcPQAAAAASUVORK5CYII=;" vertex="1" parent="1">
          <mxGeometry x="11" y="21" width="1146.87" height="96" as="geometry" />
        </mxCell>
      </root>
    </mxGraphModel>
  </diagram>
</mxfile>
